<svg xmlns="http://www.w3.org/2000/svg" xmlns:xlink="http://www.w3.org/1999/xlink" width="27" height="30"><defs><linearGradient id="a" x1="50%" x2="50%" y1="0%" y2="100%"><stop offset="0%" stop-color="#36D2AD"/><stop offset="100%" stop-color="#2DBC9A"/></linearGradient><path id="c" d="M15 0h6.323C23.256 0 25 1.744 25 3.677V10L15 0z"/><filter id="b" width="180%" height="180%" x="-40%" y="-60%" filterUnits="objectBoundingBox"><feOffset dy="-2" in="SourceAlpha" result="shadowOffsetOuter1"/><feGaussianBlur in="shadowOffsetOuter1" result="shadowBlurOuter1" stdDeviation="1"/><feComposite in="shadowBlurOuter1" in2="SourceAlpha" operator="out" result="shadowBlurOuter1"/><feColorMatrix in="shadowBlurOuter1" values="0 0 0 0 0 0 0 0 0 0 0 0 0 0 0 0 0 0 0.0909637238 0"/></filter></defs><g fill="none" fill-rule="evenodd"><path fill="url(#a)" d="M15 0l10 10v16.5a3.5 3.5 0 0 1-3.5 3.5h-18A3.5 3.5 0 0 1 0 26.5v-23A3.5 3.5 0 0 1 3.5 0H15z" opacity=".8"/><g transform="rotate(180 20 5)"><use fill="#000" filter="url(#b)" xlink:href="#c"/><use fill="#FFF" fill-opacity=".4" xlink:href="#c"/></g><path d="M15.556 12.5h-10a.556.556 0 0 0-.556.556v8.889c0 .306.249.555.556.555h10a.555.555 0 0 0 .556-.555v-8.89a.556.556 0 0 0-.556-.555zm-1.111 8.333H6.667v-2.777l1.667-1.667 2.777 2.778 1.667-1.667 1.667 1.667v1.666zm-1.111-4.444a1.111 1.111 0 1 1 0-2.222 1.111 1.111 0 0 1 0 2.222z" fill="#FFF" fill-rule="nonzero"/></g></svg>