<svg xmlns="http://www.w3.org/2000/svg" xmlns:xlink="http://www.w3.org/1999/xlink" width="27" height="30"><defs><linearGradient id="a" x1="50%" x2="50%" y1="0%" y2="100%"><stop offset="0%" stop-color="#FFC547"/><stop offset="100%" stop-color="#FFAE01"/></linearGradient><path id="c" d="M15 0h6.323C23.256 0 25 1.744 25 3.677V10L15 0z"/><filter id="b" width="180%" height="180%" x="-40%" y="-60%" filterUnits="objectBoundingBox"><feOffset dy="-2" in="SourceAlpha" result="shadowOffsetOuter1"/><feGaussianBlur in="shadowOffsetOuter1" result="shadowBlurOuter1" stdDeviation="1"/><feComposite in="shadowBlurOuter1" in2="SourceAlpha" operator="out" result="shadowBlurOuter1"/><feColorMatrix in="shadowBlurOuter1" values="0 0 0 0 0 0 0 0 0 0 0 0 0 0 0 0 0 0 0.0909637238 0"/></filter></defs><g fill="none" fill-rule="evenodd"><path fill="url(#a)" d="M15 0l10 10v16.5a3.5 3.5 0 0 1-3.5 3.5h-18A3.5 3.5 0 0 1 0 26.5v-23A3.5 3.5 0 0 1 3.5 0H15z" opacity=".9"/><g transform="rotate(180 20 5)"><use fill="#000" filter="url(#b)" xlink:href="#c"/><use fill="#FFF" fill-opacity=".4" xlink:href="#c"/></g><path fill="#FFF" fill-rule="nonzero" d="M14.22 13.08v6.72a.79.79 0 0 1-.204.534 1.362 1.362 0 0 1-.516.363c-.208.086-.415.15-.621.192a2.905 2.905 0 0 1-.58.063 2.91 2.91 0 0 1-.578-.063 3.401 3.401 0 0 1-.621-.192 1.363 1.363 0 0 1-.516-.363.79.79 0 0 1-.204-.534c0-.2.068-.378.204-.534.136-.156.308-.277.516-.363a3.42 3.42 0 0 1 .62-.192 2.91 2.91 0 0 1 .58-.063c.42 0 .804.078 1.152.234V15.66l-4.608 1.422v4.254a.79.79 0 0 1-.204.534 1.362 1.362 0 0 1-.516.363 3.39 3.39 0 0 1-.622.192 2.906 2.906 0 0 1-.579.063c-.18 0-.373-.02-.579-.063a3.402 3.402 0 0 1-.62-.192 1.363 1.363 0 0 1-.517-.363.79.79 0 0 1-.204-.534c0-.2.068-.378.204-.534.136-.156.308-.277.516-.363.208-.086.415-.15.621-.192a2.91 2.91 0 0 1 .58-.063c.42 0 .803.078 1.152.234v-5.802a.592.592 0 0 1 .408-.552l4.992-1.537a.532.532 0 0 1 .168-.024c.16 0 .296.056.408.168a.556.556 0 0 1 .168.409z"/></g></svg>