<svg xmlns="http://www.w3.org/2000/svg" xmlns:xlink="http://www.w3.org/1999/xlink" width="27" height="30"><defs><linearGradient id="a" x1="50%" x2="50%" y1="0%" y2="100%"><stop offset="0%" stop-color="#5895FF"/><stop offset="100%" stop-color="#387CF4"/></linearGradient><path id="c" d="M15 0h6.323C23.256 0 25 1.744 25 3.677V10L15 0z"/><filter id="b" width="180%" height="180%" x="-40%" y="-60%" filterUnits="objectBoundingBox"><feOffset dy="-2" in="SourceAlpha" result="shadowOffsetOuter1"/><feGaussianBlur in="shadowOffsetOuter1" result="shadowBlurOuter1" stdDeviation="1"/><feComposite in="shadowBlurOuter1" in2="SourceAlpha" operator="out" result="shadowBlurOuter1"/><feColorMatrix in="shadowBlurOuter1" values="0 0 0 0 0 0 0 0 0 0 0 0 0 0 0 0 0 0 0.0909637238 0"/></filter></defs><g fill="none" fill-rule="evenodd"><path fill="url(#a)" d="M15 0l10 10v16.5a3.5 3.5 0 0 1-3.5 3.5h-18A3.5 3.5 0 0 1 0 26.5v-23A3.5 3.5 0 0 1 3.5 0H15z"/><g transform="rotate(180 20 5)"><use fill="#000" filter="url(#b)" xlink:href="#c"/><use fill="#FFF" fill-opacity=".4" xlink:href="#c"/></g><path fill="#FFF" d="M10 21.25v1.25H5v-1.25h5zm5-2.5V20H5v-1.25h10zm0-2.5v1.25H5v-1.25h10zm0-2.5V15H5v-1.25h10z"/></g></svg>