<svg xmlns="http://www.w3.org/2000/svg" width="241" height="207"><g fill="none" fill-rule="evenodd"><path fill="#DEE4F5" fill-rule="nonzero" d="M131.001 203a3.033 3.033 0 0 1-2.12-.885 3.1 3.1 0 0 1-.64-.986 2.809 2.809 0 0 1-.24-1.146 2.85 2.85 0 0 1 .24-1.167c.065-.188.16-.364.28-.523a2.01 2.01 0 0 1 .36-.442 3.07 3.07 0 0 1 4.241 0 3.029 3.029 0 0 1 0 4.264 2.993 2.993 0 0 1-2.12.885zm-19.841-3.001c0-1.656 1.307-2.999 2.92-2.999s2.92 1.343 2.92 2.999c0 1.656-1.307 2.999-2.92 2.999s-2.92-1.343-2.92-3zm-16.177 0c0-1.656 1.307-2.999 2.92-2.999s2.92 1.343 2.92 2.999c-.01 1.651-1.312 2.988-2.92 2.999a2.88 2.88 0 0 1-2.103-.857 3.04 3.04 0 0 1-.876-2.142h.059zm-16.197 0c0-1.656 1.308-2.999 2.92-2.999 1.613 0 2.92 1.343 2.92 2.999 0 1.656-1.307 2.999-2.92 2.999a2.88 2.88 0 0 1-2.102-.857 3.04 3.04 0 0 1-.876-2.142h.058zm-16.177 0c0-1.656 1.307-2.999 2.92-2.999s2.92 1.343 2.92 2.999c0 1.656-1.307 2.999-2.92 2.999a2.877 2.877 0 0 1-2.14-.835 3.039 3.039 0 0 1-.897-2.164h.117zm-16.177 0c0-1.656 1.307-2.999 2.92-2.999s2.92 1.343 2.92 2.999c0 1.656-1.307 2.999-2.92 2.999a2.88 2.88 0 0 1-2.103-.857 3.04 3.04 0 0 1-.875-2.142h.058zm-16.197 0c0-1.656 1.308-2.999 2.92-2.999 1.613 0 2.92 1.343 2.92 2.999 0 1.656-1.307 2.999-2.92 2.999a2.9 2.9 0 0 1-2.096-.863 3.06 3.06 0 0 1-.882-2.136h.058zm-16.177 0c0-1.656 1.308-2.999 2.92-2.999 1.613 0 2.92 1.343 2.92 2.999 0 1.656-1.307 2.999-2.92 2.999a2.88 2.88 0 0 1-2.102-.857 3.04 3.04 0 0 1-.876-2.142h.058zM3 203a3.001 3.001 0 0 1-2.12-.88 2.936 2.936 0 0 1-.88-2.118c0-.794.317-1.556.88-2.118a2.12 2.12 0 0 1 .46-.38c.16-.116.335-.21.52-.28.18-.08.367-.14.56-.179a3.76 3.76 0 0 1 1.16 0c.193.039.38.1.56.18a2.6 2.6 0 0 1 .52.28c.167.109.321.236.46.38.563.56.88 1.323.88 2.118A3.001 3.001 0 0 1 3 203v-.001zm-3-18.879c0-1.59 1.343-2.879 3-2.879s3 1.29 3 2.88C6 185.711 4.657 187 3 187s-3-1.289-3-2.879zm0-15.2c0-1.59 1.343-2.88 3-2.88s3 1.29 3 2.88c0 1.59-1.343 2.878-3 2.878s-3-1.289-3-2.879zm0-15.201c0-1.59 1.343-2.88 3-2.88.802 0 1.572.31 2.135.858a2.82 2.82 0 0 1 .865 2.06c0 1.59-1.343 2.88-3 2.88s-3-1.29-3-2.88v-.038zm0-15.22c0-1.59 1.343-2.879 3-2.879s3 1.289 3 2.879-1.343 2.879-3 2.879-3-1.289-3-2.879zm0-15.2c0-1.59 1.343-2.88 3-2.88s3 1.29 3 2.88c0 1.59-1.343 2.878-3 2.878s-3-1.289-3-2.879zm0-15.22c0-1.59 1.343-2.88 3-2.88s3 1.29 3 2.88c0 1.59-1.343 2.878-3 2.878s-3-1.288-3-2.878zm0-15.201C0 91.289 1.343 90 3 90s3 1.289 3 2.879-1.343 2.879-3 2.879-3-1.29-3-2.88zM2.99 82a2.985 2.985 0 0 1-2.113-.88A3.045 3.045 0 0 1 0 79c0-.795.316-1.558.877-2.12.134-.148.289-.276.459-.38.165-.089.339-.162.518-.22l.578-.22c.381-.08.775-.08 1.156 0l.558.16.518.28A3.01 3.01 0 0 1 6 79c0 1.657-1.339 3-2.99 3h-.02zm108.17-3.001c0-1.656 1.307-2.999 2.92-2.999s2.92 1.343 2.92 2.999c0 1.656-1.307 2.999-2.92 2.999s-2.92-1.343-2.92-3zm-16.177 0c0-1.656 1.307-2.999 2.92-2.999s2.92 1.343 2.92 2.999c0 1.656-1.307 2.999-2.92 2.999a2.88 2.88 0 0 1-2.103-.857 3.04 3.04 0 0 1-.876-2.142h.059zm-16.197 0c0-1.656 1.308-2.999 2.92-2.999 1.613 0 2.92 1.343 2.92 2.999 0 1.656-1.307 2.999-2.92 2.999a2.88 2.88 0 0 1-2.102-.857 3.04 3.04 0 0 1-.876-2.142h.058zm-16.177 0c0-1.656 1.307-2.999 2.92-2.999s2.92 1.343 2.92 2.999c0 1.656-1.307 2.999-2.92 2.999a2.877 2.877 0 0 1-2.14-.835 3.039 3.039 0 0 1-.897-2.164h.117zm-16.177 0c0-1.656 1.307-2.999 2.92-2.999s2.92 1.343 2.92 2.999c0 1.656-1.307 2.999-2.92 2.999a2.88 2.88 0 0 1-2.103-.857 3.04 3.04 0 0 1-.875-2.142h.058zm-16.197 0c0-1.656 1.308-2.999 2.92-2.999 1.613 0 2.92 1.343 2.92 2.999 0 1.656-1.307 2.999-2.92 2.999a2.88 2.88 0 0 1-2.102-.857 3.04 3.04 0 0 1-.876-2.142h.058zm-16.177 0c0-1.656 1.308-2.999 2.92-2.999 1.613 0 2.92 1.343 2.92 2.999 0 1.656-1.307 2.999-2.92 2.999a2.88 2.88 0 0 1-2.102-.857A3.04 3.04 0 0 1 14 78.999h.058zM131.002 82a2.977 2.977 0 0 1-2.505-1.333 2.985 2.985 0 0 1-.254-2.83c.07-.185.164-.36.28-.52a2.48 2.48 0 0 1 .36-.44 3.036 3.036 0 0 1 2.718-.82l.56.16c.173.081.34.175.5.28.17.104.325.232.46.38.142.132.27.28.38.44 0 .18.2.34.279.52.072.182.125.37.16.561.2.987-.107 2.01-.82 2.721a2 2 0 0 1-.46.36 2.458 2.458 0 0 1-.499.28c-.365.162-.76.244-1.16.24zM128 184.121c0-1.59 1.343-2.879 3-2.879s3 1.29 3 2.88c0 1.59-1.343 2.878-3 2.878s-3-1.289-3-2.879zm0-15.2c0-1.59 1.343-2.88 3-2.88s3 1.29 3 2.88c0 1.59-1.343 2.878-3 2.878s-3-1.289-3-2.879zm0-15.201c0-1.593 1.34-2.888 3-2.898a3.083 3.083 0 0 1 2.137.869 2.84 2.84 0 0 1 .863 2.067c-.011 1.583-1.351 2.86-3 2.86-1.65 0-2.989-1.277-3-2.86v-.038zm0-15.22c0-1.59 1.343-2.879 3-2.879s3 1.289 3 2.879-1.343 2.879-3 2.879-3-1.289-3-2.879zm0-15.2c0-1.59 1.343-2.88 3-2.88s3 1.29 3 2.88c0 1.59-1.343 2.878-3 2.878s-3-1.289-3-2.879zm0-15.22c0-1.59 1.343-2.88 3-2.88s3 1.29 3 2.88c0 1.59-1.343 2.878-3 2.878s-3-1.288-3-2.878zm0-15.201c0-1.59 1.343-2.879 3-2.879s3 1.289 3 2.879-1.343 2.879-3 2.879-3-1.29-3-2.88z"/><path fill="#FFF" fill-rule="nonzero" d="M33 1h176v169H33z"/><path fill="#DEE4F5" fill-rule="nonzero" d="M209.069 173.836h-22.482c-3.724 0-7.526-.117-11.114 0-1.824 0-3.589.194-5.45.194h-5.646c-3.879-.136-7.662-.33-11.366-.31l-11.018.29-22.074.64c-3.705 0-7.39.253-11.154.195-3.763-.058-7.545-.252-11.308-.33-3.763-.078-7.468 0-11.154.116-3.685.117-7.39.33-11.115.369-7.506-.136-14.974-.272-22.462-.504l-5.586-.156H30.4a1.94 1.94 0 0 1-1.94-1.94c0-7.082-.756-14.144-.33-21.226a88.3 88.3 0 0 0 .447-10.613c-.117-1.766-.33-3.55-.35-5.317-.019-1.765 0-3.53 0-5.296 0-14.164.408-28.328.31-42.472V76.863c0-3.532.33-7.082.486-10.633.155-3.55.368-7.062.252-10.613-.116-3.55-.466-7.063-.446-10.613 0-7.082.582-14.145.718-21.226.135-7.082 0-14.164-.156-21.246 0-.582.466-1.057 1.048-1.067 7.37-.175 14.761 0 22.132 0 7.371 0 14.742 0 22.133.213 3.685 0 7.37.097 11.056 0l11.056-.349c7.39-.31 14.762-.466 22.133-.64 7.37-.175 14.742-.233 22.132-.35 7.39-.116 14.742.408 22.113.505 7.371.097 14.762-.31 22.133-.466 7.37-.155 14.761-.64 22.132-.194h.155a2.309 2.309 0 0 1 2.192 2.173c0 1.805-.116 3.59-.136 5.375l.117 5.355.213 10.749c0 3.59 0 7.16-.233 10.71-.233 3.55-.504 7.062-.523 10.632 0 7.14.31 14.378-.175 21.343-.15 3.597-.08 7.2.213 10.788.184 3.574.184 7.155 0 10.73a510.852 510.852 0 0 0-.504 21.206c-.02 7.14.33 14.494 0 21.343s0 14.241.155 21.556c.117 3.686 0 7.237.117 10.846.116 3.609.058 7.315.019 10.846zm-3.298-3.299v-20.974c.117-6.887.35-13.736-.116-21.051-.194-3.628-.369-7.218-.33-10.69l.214-10.362c0-6.985-.35-14.164-.718-21.342a71.594 71.594 0 0 1 0-10.42c.42-3.443.537-6.916.35-10.38a97.037 97.037 0 0 1-.311-10.574c0-3.454.446-6.888.446-10.4v-5.277l-.31-5.297c-.233-3.531-.233-7.024-.175-10.516l.33-10.478.155-5.238V2.26l2.211 2.232c-14.761.62-29.503-.757-44.265-.35-3.685 0-7.37.369-11.056.563-1.843.136-3.686.194-5.528.252-1.843.058-3.686.097-5.529 0-7.39 0-14.761.097-22.132-.136-7.37-.232-14.742-.174-22.132-.64a182.87 182.87 0 0 0-22.113-.388c-14.762.621-29.504.931-44.265.737l2.23-2.173c-.27 7.082-.795 14.164-.484 21.343.31 7.179 1.125 14.144 1.144 21.226 0 3.55-.66 7.082-.97 10.613a40.542 40.542 0 0 0 0 5.317c0 1.765.194 3.53.35 5.296.425 3.53.658 7.079.698 10.633.097 3.531-.097 7.062-.155 10.613l-.272 10.477v10.614l-.155 21.342v5.297c0 1.766-.31 3.55-.466 5.316a84.325 84.325 0 0 0 .272 10.613c.33 7.082-.466 14.145-.543 21.227l-1.63-1.63c14.665.29 29.33.155 43.974.116l10.998.117c3.667 0 7.352 0 10.96-.136l10.843-.369h10.979l22.113.388 11.056.175c3.667 0 7.216-.194 10.766-.33s7.235 0 10.998 0h10.98c7.04-.058 14.353-.039 21.588-.078z"/><g fill="#DEE4F5" fill-rule="nonzero" opacity=".5"><path d="M46.748 16.206h145.16v138.917H46.748z"/><path d="M192.996 156.227h-27.479c-2.952 0-5.981.194-9.108 0-3.126-.194-6.233-.174-9.263-.155l-9.03.194-18.137.426c-6.001.233-12.215 0-18.352 0-3.068-.116-6.098 0-9.127 0l-9.127.213c-12.254-.135-24.469-.562-36.625-.484a1.361 1.361 0 0 1-1.379-1.337c0-5.811-.466-11.623-.214-17.435.25-2.885.353-5.782.311-8.678 0-1.453-.233-2.906-.233-4.34v-4.223c0-11.623.272-23.246.214-34.734-.059-11.487 1.107-23.15.194-34.734l.466-17.434c.116-5.812 0-11.624-.097-17.435 0-.389.31-.706.699-.717 6.04-.116 12.079 0 18.138 0 6.059 0 12.098 0 18.137.136h9.07l9.088-.233c6.04-.193 12.098-.31 18.137-.426 6.04-.116 12.099-.136 18.138-.213 6.04-.078 12.099.213 18.157.29 6.06.078 12.099-.174 18.138-.27 6.04-.098 12.099-.369 18.138-.136h.116a1.57 1.57 0 0 1 1.496 1.588v8.756l.116 8.776c0 2.925 0 5.811-.155 8.737a264.3 264.3 0 0 0-.33 8.698c0 5.811.194 11.623 0 17.434-.136 2.867 0 5.812.116 8.776.117 2.964 0 5.812 0 8.775a572.449 572.449 0 0 0-.33 17.338c-.02 5.831.214 11.798 0 17.435-.213 5.637 0 11.623.097 17.59.097 5.967 0 11.952.02 17.822zm-2.195-2.189v-17.202c0-5.58.195-11.333 0-17.241a268.571 268.571 0 0 1 0-17.241c.175-5.618-.213-11.624-.466-17.435a78.516 78.516 0 0 1 0-8.563 61.84 61.84 0 0 0 .233-8.523c-.485-5.812 0-11.45 0-17.183 0-5.734-.64-11.623-.35-17.26l.195-8.602v-8.62l1.495 1.491c-6.04.233-12.079 0-18.138 0-6.058 0-12.098-.232-18.137-.155-6.04.078-12.099.64-18.158.582-6.058-.059-12.098 0-18.137 0-6.04 0-12.099-.155-18.138-.446l-9.088-.33c-3.01-.096-6.04 0-9.07 0-12.098.427-24.196.62-36.275.485l1.554-1.55c-.194 5.812-.544 11.623-.33 17.435.213 5.812.757 11.623.757 17.435 0 2.906-.427 5.811-.621 8.678a61.627 61.627 0 0 0 .194 8.68c.487 5.797.604 11.62.35 17.434-.292 11.623-.137 23.15-.292 34.734v4.34c0 1.433-.214 2.886-.31 4.338a80.913 80.913 0 0 0 .174 8.68c.194 5.81-.291 11.622-.35 17.434l-1.087-1.085c12.02.194 24.06 0 36.081 0 6.02 0 12.099.213 18.041 0s11.885-.387 17.944-.213l18.137.271 9.07.116 8.874-.193c2.932-.117 5.962 0 9.03 0h9.01c5.846-.29 11.827-.272 17.808-.29z"/></g><rect width="43" height="47" x="64" y="43" fill="#DEE4F5" fill-rule="nonzero" rx="11.02"/><path fill="#DEE4F5" fill-rule="nonzero" d="M86.144 90c-6.228-.046-12.175-2.645-16.493-7.209a21.734 21.734 0 0 1-4.636-8.105c-.23-.76-.383-1.539-.574-2.299-.192-.76-.23-1.539-.345-2.318L64 67.71v-2.22c0-1.5 0-3.02.134-4.599 0-.78.25-1.558.364-2.318l.613-2.26a21.626 21.626 0 0 1 4.655-7.95 21.839 21.839 0 0 1 7.317-5.416A23.169 23.169 0 0 1 85.933 41c3.046.007 6.056.671 8.83 1.948a22.983 22.983 0 0 1 7.433 5.241 22.312 22.312 0 0 1 4.655 7.969c.249.72.421 1.5.613 2.24.191.74.268 1.54.402 2.319l.134 2.318v2.28c0 1.5 0 3.02-.172 4.578-.096.78-.25 1.56-.364 2.319l-.537 2.202a21.274 21.274 0 0 1-4.501 8.066 14.44 14.44 0 0 1-1.648 1.617 15.866 15.866 0 0 1-1.8 1.441 20.87 20.87 0 0 1-3.927 2.514A21.942 21.942 0 0 1 86.144 90zm0-1.54c5.8.005 11.307-2.59 15.056-7.091a21.969 21.969 0 0 0 4.252-7.423 25.737 25.737 0 0 0 1.016-8.69v-4.461c-.115-.721-.173-1.442-.307-2.163-.134-.72-.364-1.422-.594-2.104a20.899 20.899 0 0 0-4.405-7.443 20.103 20.103 0 0 0-6.839-5.163 21.266 21.266 0 0 0-8.37-1.52h-2.127c-.714.066-1.424.17-2.126.313a20.828 20.828 0 0 0-4.023 1.383 19.712 19.712 0 0 0-6.858 5.085 27.624 27.624 0 0 0-4.271 7.462 20.18 20.18 0 0 0-.594 2.182c0 .72-.23 1.442-.307 2.163a55.787 55.787 0 0 0-.268 4.461c-.598 5.964 1.388 11.896 5.44 16.25 3.854 4.48 9.475 6.974 15.325 6.799v-.04z"/><path fill="#FFF" fill-rule="nonzero" d="M86 67h56v62H86z"/><path fill="#FFF" fill-rule="nonzero" d="M142.693 128.79c-4.651 0-9.456-.116-13.974 0-4.805-.212-9.323 0-13.955.133-2.317 0-4.614.173-6.988 0-2.373-.172-4.709-.134-7.006 0-4.652.23-9.361-.134-14.013-.134a.69.69 0 0 1-.689-.69v-7.669c0-2.55.23-5.119 0-7.669-.153-5.1 0-10.218 0-15.337v-7.67l.172-3.834c0-1.284 0-2.569-.115-3.834 0-2.55.115-5.1.173-7.669.057-2.569 0-5.119 0-7.669a.383.383 0 0 1 .363-.364h13.84c4.614.153 9.247-.192 13.86-.23h13.86c4.614.21 9.227 0 13.84-.154.437-.01.803.33.824.767.134 2.589-.173 5.158 0 7.67.172 2.51.134 5.195 0 7.668a73.194 73.194 0 0 0 0 7.669l-.134 3.834-.058 4.218c0 2.57-.191 5.08-.21 7.669-.02 2.588.153 5.253 0 7.669l-.096 3.834.096 3.95c.21 2.722.21 5.234.21 7.841zm-1.09-1.075v-11.503l-.135-3.834c-.172-2.627 0-5.004 0-7.669l-.268-7.669c0-1.265.249-2.435.23-3.72-.02-1.284-.115-2.568-.153-3.834a71.275 71.275 0 0 0 0-7.669c-.173-2.569 0-5.061 0-7.668 0-2.608-.134-5.081 0-7.67l.765.768c-4.613 0-9.227-.307-13.84 0l-3.465.134h-10.375c-4.614 0-9.247-.556-13.86-.25-4.614.307-9.227.307-13.84.192l.746-.747c0 2.55-.268 5.119-.115 7.668.153 2.55.44 5.12.307 7.67a37.307 37.307 0 0 0-.307 3.834c0 1.265.173 2.55.268 3.834.23 2.55 0 5.1 0 7.669-.115 5.119 0 10.238-.23 15.338-.172 2.569.23 5.119 0 7.669s-.133 5.118-.172 7.668l-.498-.479h13.764c2.298 0 4.576 0 6.834-.134 2.26-.134 4.556 0 6.854 0 4.594 0 9.284.25 13.725 0 4.69.556 9.112.364 13.688.402h.076z"/><path fill="#DEE4F5" fill-rule="nonzero" d="M152.934 93.354L134 129l42-1.313-21.94-34.39a.646.646 0 0 0-.58-.296.641.641 0 0 0-.546.353z"/><path fill="#DEE4F5" fill-rule="nonzero" d="M153.126 94.51c-1.57 3.07-3.101 6.16-4.748 9.193l-2.145 4.723-2.298 4.625c-3.216 6.122-6.3 12.284-9.574 18.367l-.631-1.01c3.446 0 6.912 0 10.378-.176 3.466-.175 6.912 0 10.359-.252 3.446-.253 6.912-.175 10.359-.311s6.912-.447 10.359-.583l-.517.99-5.744-9.153c-1.915-3.071-3.581-6.22-5.515-9.252-.938-1.535-1.915-3.051-2.815-4.606-.9-1.555-1.742-3.149-2.719-4.664l-2.834-4.568-1.436-2.293-.67-1.05s.21.02.191.02zm-1.34-.7a1.418 1.418 0 0 1 1.092-.797 1.35 1.35 0 0 1 1.263.525c.364.525.517.797.766 1.224l1.417 2.294 2.834 4.587c.92 1.554 1.915 3.012 2.91 4.547a73.48 73.48 0 0 1 2.758 4.626l5.476 9.29a127.46 127.46 0 0 0 2.7 4.665l2.872 4.567a.748.748 0 0 1-.23 1.05.625.625 0 0 1-.363.116l-5.19.253c-1.723.156-3.465 0-5.188 0-3.447.175-6.894.564-10.36.603-3.465.038-6.912.252-10.359.272-3.446.02-6.912.505-10.378.33a.818.818 0 0 1-.571-.272.843.843 0 0 1-.214-.603.907.907 0 0 1 0-.388c.862-1.497 1.723-2.993 2.47-4.548.747-1.555 1.685-3.013 2.49-4.529 1.684-2.973 3.025-6.16 4.614-9.27l2.24-4.646 2.432-4.606c1.398-3.11 3.006-6.2 4.52-9.29z"/><ellipse cx="202" cy="166.5" fill="#DEE4F5" fill-rule="nonzero" stroke="#DEE4F5" stroke-linecap="round" stroke-linejoin="round" stroke-width="2" rx="38" ry="39.5"/><path stroke="#FFF" stroke-linecap="round" stroke-linejoin="round" stroke-width="3" d="M202 147v40m15-20l-15-20-15 20"/></g></svg>