<svg xmlns="http://www.w3.org/2000/svg" width="247" height="265"><g fill="none" fill-rule="evenodd"><path fill="#DEE4F5" fill-rule="nonzero" d="M245.976 258.992a3.533 3.533 0 0 1 0 4.975 3.492 3.492 0 0 1-2.474 1.033 3.539 3.539 0 0 1-2.475-1.033 3.616 3.616 0 0 1-.747-1.15 3.277 3.277 0 0 1-.28-1.337 3.324 3.324 0 0 1 .28-1.361 2.21 2.21 0 0 1 .327-.61c.115-.192.256-.366.42-.517a3.581 3.581 0 0 1 4.949 0zm-160.8-.94a3.1 3.1 0 0 1 .654.21c.214.086.418.195.607.327.194.127.374.276.536.443a3.496 3.496 0 0 1 1.027 2.47 3.542 3.542 0 0 1-1.027 2.472A3.501 3.501 0 0 1 84.5 265c-.928 0-1.818-.37-2.473-1.026A3.426 3.426 0 0 1 81 261.503c0-.927.37-1.816 1.027-2.471.157-.173.338-.322.536-.443a2.52 2.52 0 0 1 .607-.327c.21-.094.428-.164.653-.21a4.39 4.39 0 0 1 1.354 0zm78.36-.052c1.922 0 3.493 1.464 3.595 3.307l.005.192c0 1.867-1.506 3.393-3.402 3.493l-.198.005a3.66 3.66 0 0 1-2.64-.974 3.451 3.451 0 0 1-1.104-2.524h.144c0-1.868 1.506-3.394 3.402-3.494l.198-.005zm59.864 0c1.922 0 3.492 1.464 3.595 3.307l.005.192c0 1.867-1.506 3.393-3.403 3.493l-.197.005c-1.989 0-3.6-1.566-3.6-3.498 0-1.868 1.505-3.394 3.402-3.494l.198-.005zm-19.947 0c1.922 0 3.493 1.464 3.595 3.307l.005.192c-.012 1.862-1.512 3.381-3.403 3.492l-.197.006a3.657 3.657 0 0 1-2.593-1 3.45 3.45 0 0 1-1.08-2.498h.073c0-1.868 1.506-3.394 3.402-3.494l.198-.005zm-19.97 0c1.922 0 3.492 1.464 3.595 3.307l.005.192c0 1.867-1.506 3.393-3.403 3.493l-.197.005a3.657 3.657 0 0 1-2.593-1 3.45 3.45 0 0 1-1.08-2.498h.072c0-1.868 1.506-3.394 3.403-3.494l.198-.005zm-39.894 0c1.923 0 3.493 1.464 3.596 3.307l.005.192c0 1.867-1.506 3.393-3.403 3.493l-.198.005a3.657 3.657 0 0 1-2.592-1 3.45 3.45 0 0 1-1.08-2.498h.072c0-1.868 1.506-3.394 3.403-3.494l.197-.005zm-19.97 0c1.922 0 3.493 1.464 3.595 3.307l.005.192c0 1.867-1.506 3.393-3.402 3.493l-.198.005a3.681 3.681 0 0 1-2.585-1.007 3.474 3.474 0 0 1-1.087-2.491h.072c0-1.868 1.506-3.394 3.402-3.494l.198-.005zm-19.947 0c1.923 0 3.493 1.464 3.596 3.307l.005.192c0 1.867-1.506 3.393-3.403 3.493l-.198.005a3.657 3.657 0 0 1-2.592-1A3.45 3.45 0 0 1 100 261.5h.072c0-1.868 1.506-3.394 3.403-3.494l.197-.005zM84.5 239.936c1.868 0 3.395 1.478 3.495 3.338l.005.194c0 1.886-1.465 3.426-3.308 3.527L84.5 247c-1.933 0-3.5-1.581-3.5-3.532 0-1.885 1.464-3.426 3.308-3.526l.192-.006zm159 0c1.868 0 3.395 1.478 3.495 3.338l.005.194c0 1.886-1.465 3.426-3.308 3.527l-.192.005c-1.933 0-3.5-1.581-3.5-3.532 0-1.885 1.464-3.426 3.308-3.526l.192-.006zm-159-18.648c1.868 0 3.395 1.478 3.495 3.338l.005.194c0 1.886-1.465 3.426-3.308 3.527l-.192.005c-1.933 0-3.5-1.581-3.5-3.532 0-1.886 1.464-3.426 3.308-3.527l.192-.005zm159 0c1.868 0 3.395 1.478 3.495 3.338l.005.194c0 1.886-1.465 3.426-3.308 3.527l-.192.005c-1.933 0-3.5-1.581-3.5-3.532 0-1.886 1.464-3.426 3.308-3.527l.192-.005zm-159-18.648c.936 0 1.834.378 2.491 1.05a3.55 3.55 0 0 1 1.005 2.311l.004.218c0 1.885-1.465 3.426-3.308 3.526l-.192.006c-1.933 0-3.5-1.582-3.5-3.532v-.047c0-1.886 1.464-3.426 3.308-3.527l.192-.005zm159-.024a3.51 3.51 0 0 1 2.493 1.067 3.57 3.57 0 0 1 1.003 2.318l.004.218c-.013 1.877-1.474 3.403-3.309 3.503l-.191.005c-1.924 0-3.487-1.567-3.5-3.508v-.047c0-1.89 1.46-3.436 3.307-3.55l.193-.006zm-159-18.648c1.868 0 3.395 1.478 3.495 3.338l.005.194c0 1.886-1.465 3.426-3.308 3.527l-.192.005c-1.933 0-3.5-1.581-3.5-3.532 0-1.886 1.464-3.426 3.308-3.527l.192-.005zm159 0c1.868 0 3.395 1.478 3.495 3.338l.005.194c0 1.886-1.465 3.426-3.308 3.527l-.192.005c-1.933 0-3.5-1.581-3.5-3.532 0-1.886 1.464-3.426 3.308-3.527l.192-.005zm-159-18.648c1.868 0 3.395 1.478 3.495 3.338l.005.194c0 1.885-1.465 3.426-3.308 3.526l-.192.006c-1.933 0-3.5-1.582-3.5-3.532 0-1.886 1.464-3.426 3.308-3.527l.192-.005zm159 0c1.868 0 3.395 1.478 3.495 3.338l.005.194c0 1.885-1.465 3.426-3.308 3.526l-.192.006c-1.933 0-3.5-1.582-3.5-3.532 0-1.886 1.464-3.426 3.308-3.527l.192-.005zm-159-18.672c1.868 0 3.395 1.478 3.495 3.338l.005.194c0 1.886-1.465 3.426-3.308 3.527l-.192.005c-1.933 0-3.5-1.581-3.5-3.532 0-1.886 1.464-3.426 3.308-3.527l.192-.005zm159 0c1.868 0 3.395 1.478 3.495 3.338l.005.194c0 1.886-1.465 3.426-3.308 3.527l-.192.005c-1.933 0-3.5-1.581-3.5-3.532 0-1.886 1.464-3.426 3.308-3.527l.192-.005zm0-18.648c1.868 0 3.395 1.478 3.495 3.338l.005.194c0 1.885-1.465 3.426-3.308 3.526l-.192.006c-1.933 0-3.5-1.582-3.5-3.532 0-1.886 1.464-3.426 3.308-3.527l.192-.005zm-159 0c1.868 0 3.395 1.478 3.495 3.338l.005.194c0 1.885-1.465 3.426-3.308 3.526l-.192.006c-1.933 0-3.5-1.582-3.5-3.532 0-1.886 1.464-3.426 3.308-3.527L84.5 128zm.686-18.93l.651.187.605.326c.194.128.373.277.535.444A3.506 3.506 0 0 1 88 112.5c0 1.933-1.562 3.5-3.488 3.5h-.024a3.48 3.48 0 0 1-2.465-1.027A3.553 3.553 0 0 1 81 112.5c0-.928.369-1.818 1.023-2.473.157-.173.337-.322.535-.444a3.69 3.69 0 0 1 .605-.256l.674-.257a3.292 3.292 0 0 1 1.349 0zm159.016-.004l.653.187c.201.095.396.204.583.327.198.122.379.27.536.443.166.154.315.327.443.514 0 .21.233.397.326.607.084.211.146.43.187.654a3.505 3.505 0 0 1-.956 3.175 2.332 2.332 0 0 1-.536.42c-.181.131-.377.24-.583.327a3.285 3.285 0 0 1-1.353.28 3.473 3.473 0 0 1-2.923-1.555 3.482 3.482 0 0 1-.295-3.301c.081-.216.19-.42.327-.607.12-.187.26-.36.42-.514a3.542 3.542 0 0 1 3.17-.957zM163.536 109c1.922 0 3.493 1.464 3.595 3.307l.005.192c0 1.867-1.506 3.393-3.402 3.493l-.198.005a3.66 3.66 0 0 1-2.64-.974 3.451 3.451 0 0 1-1.104-2.524h.144c0-1.868 1.506-3.394 3.402-3.494l.198-.005zm-19.947 0c1.923 0 3.493 1.464 3.596 3.307l.005.192c0 1.867-1.506 3.393-3.403 3.493l-.198.005a3.657 3.657 0 0 1-2.592-1 3.45 3.45 0 0 1-1.08-2.498h.072c0-1.868 1.506-3.394 3.403-3.494l.197-.005zm-19.97 0c1.922 0 3.493 1.464 3.595 3.307l.005.192c0 1.867-1.506 3.393-3.402 3.493l-.198.005a3.657 3.657 0 0 1-2.593-1 3.45 3.45 0 0 1-1.08-2.498h.073c0-1.868 1.506-3.394 3.402-3.494l.198-.005zm-19.947 0c1.923 0 3.493 1.464 3.596 3.307l.005.192c0 1.867-1.506 3.393-3.403 3.493l-.198.005a3.657 3.657 0 0 1-2.592-1A3.45 3.45 0 0 1 100 112.5h.072c0-1.868 1.506-3.394 3.403-3.494l.197-.005zm99.781 0c1.922 0 3.493 1.464 3.595 3.307l.005.192c0 1.867-1.506 3.393-3.402 3.493l-.198.005a3.657 3.657 0 0 1-2.593-1 3.45 3.45 0 0 1-1.08-2.498h.073c0-1.868 1.506-3.394 3.402-3.494l.198-.005zm19.947 0c1.922 0 3.492 1.464 3.595 3.307l.005.192c0 1.867-1.506 3.393-3.403 3.493l-.197.005c-1.989 0-3.6-1.566-3.6-3.498 0-1.868 1.505-3.394 3.402-3.494l.198-.005zm-39.917 0c1.922 0 3.492 1.464 3.595 3.307l.005.192c0 1.867-1.506 3.393-3.403 3.493l-.197.005a3.657 3.657 0 0 1-2.593-1 3.45 3.45 0 0 1-1.08-2.498h.072c0-1.868 1.506-3.394 3.403-3.494l.198-.005z"/><path fill="#D0DBEF" fill-rule="nonzero" d="M182.008 116.541l-136.692 15.94 17.143 118.797 130.827-13.985c2.706-.45 4.812-2.857 4.511-5.714l-9.925-110.376c-.3-2.857-2.857-5.113-5.864-4.662z"/><g fill-rule="nonzero"><g transform="translate(96.744 82.707)"><path fill="#DDE4F3" d="M56.692 9.624l-39.55-8.27c-1.052-.151-1.954.45-2.104 1.353L1.504 67.067c-.15 1.053.45 1.956 1.353 2.106l50.376 10.526c1.053.15 1.955-.45 2.105-1.353l11.128-53.534-9.774-15.188z"/><path fill="#D0DBEF" d="M54.135 22.256l1.805 2.556 8.12 12.481 2.707-12.481L56.692 9.624z"/><path fill="#EEF1F9" d="M66.767 24.812l-12.632-2.556 2.557-12.632"/><circle cx="31.429" cy="27.218" r="4.361" fill="#D0DBEF" transform="rotate(-45.162 31.429 27.218)"/><circle cx="30.788" cy="26.215" r="4.361" fill="#FFF" transform="rotate(-45.162 30.788 26.215)"/></g><path fill="#D0DBEF" d="M110.88 132.03l37.894 9.323c.752.15 1.504-.601 1.203-1.353l-9.774-23.308-1.353 11.579-1.955 1.955-6.166 1.503-19.85.301z"/><path fill="#FFF" d="M138.248 115.188l-11.73 13.383c-.45.452-1.052.301-1.353-.3l-3.157-9.023c-.15-.601-.903-.752-1.354-.3l-10.225 11.88c-.452.45-.15 1.202.45 1.202l10.677 2.105 6.166 1.203 18.646 3.76c.602.15 1.053-.451.903-1.053l-7.67-22.707c-.3-.45-1.052-.601-1.353-.15z"/><path fill="#DDE4F3" d="M38.7 62.105L5.014 84.662c-.752.45-.902 1.503-.451 2.255l36.842 54.888c.451.751 1.504.902 2.256.45l42.857-28.721c.902-.602 1.052-1.654.45-2.557L56.595 65.564 38.7 62.105z"/><path fill="#D0DBEF" d="M45.917 72.782l3.158.451 14.587 2.857-7.068-10.526-17.895-3.459z"/><path fill="#EEF1F9" d="M56.594 65.564l-10.677 7.218L38.7 62.105"/><g transform="translate(32.083 85.714)"><circle cx="13.383" cy="13.684" r="11.729" fill="#D0DBEF"/><circle cx="11.88" cy="11.88" r="11.729" fill="#FFF"/><path fill="#DDE4F3" d="M6.316 8.12l7.067 10.827 3.76-10.376z"/></g><g><path fill="#DDE4F3" d="M109.827 0l-40 7.368c-.902.15-1.504 1.053-1.353 1.955l11.88 64.963c.15.902 1.052 1.503 1.954 1.353l50.827-9.323c1.053-.15 1.654-1.203 1.504-2.105l-9.925-53.835L109.827 0z"/><path fill="#D0DBEF" d="M112.083 12.632l2.706 1.804 12.331 8.421-2.406-12.481L109.827 0z"/><path fill="#EEF1F9" d="M124.714 10.376l-12.631 2.256L109.827 0"/><path fill="#D0DBEF" d="M117.496 38.797c-1.353-1.504-4.812-1.203-9.925.601-.902-.601-2.105-1.353-3.157-2.105-.752-.601-1.655-1.504-2.557-2.556.451-5.263.15-8.572-1.353-10.075-.752-.752-1.805-1.053-2.857-.903-1.354.301-2.106 1.053-2.406 2.256-.602 2.406 1.654 6.316 4.06 9.323-.15 1.504-.451 3.459-.903 5.564-.3 1.053-.45 2.256-.902 3.309-3.609 2.255-7.519 5.413-7.519 8.12 0 1.052.602 1.955 1.504 2.556.602.301 1.203.451 1.805.301.3 0 .45-.15.752-.3 2.255-1.053 4.21-5.114 5.413-8.873a67.47 67.47 0 0 1 3.61-1.955c1.653-.752 3.007-1.353 4.21-1.955 2.706 1.504 5.112 2.106 6.917 1.805 1.203-.301 2.406-.902 3.158-2.105 1.203-1.504.3-2.707.15-3.008zM92.985 52.782c-.15 0-.3 0-.451-.3 0-.602 1.052-2.106 3.308-3.91-.902 2.255-1.955 3.759-2.857 4.21zm4.511-26.015s0-.15.451-.3c.451 0 .602 0 .602.15.601.601.902 2.105.902 4.962-1.353-1.955-2.105-3.91-1.955-4.812zm4.361 15.188c-.451.15-.902.451-1.353.752 0-.301.15-.602.15-1.053.3-1.203.451-2.406.602-3.609.601.451 1.052.902 1.503 1.203l1.805 1.354a22.76 22.76 0 0 1-2.707 1.353zm13.384-1.353c-.301.601-.752.902-1.504.902-.902.15-1.955 0-3.158-.451 3.158-.903 4.962-1.053 4.662-.451z"/><path fill="#FFF" d="M116.594 37.143c-1.353-1.504-4.812-1.203-9.925.601-.902-.601-2.105-1.353-3.158-2.105-.752-.601-1.654-1.504-2.556-2.556.451-5.263.15-8.572-1.353-10.075-.752-.752-1.805-1.053-2.858-.903-1.353.301-2.105 1.053-2.406 2.256-.601 2.406 1.654 6.316 4.06 9.323-.15 1.504-.45 3.459-.902 5.564-.3 1.053-.45 2.256-.902 3.308-3.609 2.256-7.519 5.414-7.519 8.12 0 1.053.602 1.956 1.504 2.557.601.3 1.203.451 1.804.3.301 0 .452-.15.752-.3 2.256-1.053 4.21-5.113 5.414-8.872a67.242 67.242 0 0 1 3.609-1.955c1.654-.752 3.007-1.353 4.21-1.955 2.707 1.504 5.113 2.105 6.918 1.805 1.203-.301 2.406-.903 3.158-2.106 1.203-1.503.3-2.556.15-3.007zM92.083 51.278c-.15 0-.301 0-.451-.3 0-.602 1.052-2.106 3.308-3.91-.902 2.255-1.955 3.76-2.857 4.21zm4.511-26.165s0-.15.451-.301c.451 0 .602 0 .602.15.601.602.902 2.106.902 4.963-1.354-1.805-2.105-3.76-1.955-4.812zm4.511 15.188c-.45.15-.902.45-1.353.752 0-.301.15-.602.15-1.053.301-1.203.451-2.406.602-3.609.601.451 1.052.902 1.504 1.203l1.804 1.353-2.707 1.354zm13.233-1.354c-.3.602-.752.903-1.503.903-.903.15-1.955 0-3.158-.452 3.158-.902 4.962-1.052 4.661-.45z"/></g></g><path fill="#EEF1F9" fill-rule="nonzero" d="M187.27 233.083l-9.623-96.542c-.301-2.706-2.707-4.812-5.414-4.51L58.248 144.36l-7.218-21.203c-.902-2.857-3.76-4.662-6.767-4.361l-39.248 3.91c-2.707.3-4.812 2.707-4.511 5.413l3.76 37.444 8.57 85.714c.301 2.707 2.707 4.812 5.414 4.511l164.361-17.293c2.857-.15 4.962-2.707 4.662-5.413z"/><path fill="#D0DBEF" fill-rule="nonzero" d="M96.895 181.256a1.02 1.02 0 0 1 .425.094l.048.025a.709.709 0 0 1 .117.073 1.037 1.037 0 0 1 .204.2l.006.008 10.376 13.834a1 1 0 0 1-1.6 1.2l-8.577-11.435v24.67a1 1 0 0 1-.883.993l-.116.007a1 1 0 0 1-1-1l-.001-24.67-8.575 11.435a1 1 0 0 1-1.295.27l-.105-.07a1 1 0 0 1-.2-1.4l10.376-13.834a1.04 1.04 0 0 1 .268-.248.693.693 0 0 1 .058-.034l.049-.024a.644.644 0 0 1 .106-.043.827.827 0 0 1 .175-.041.977.977 0 0 1 .144-.01l-.092.004a.868.868 0 0 1 .072-.004z"/><path stroke="#D0DBEF" stroke-dasharray="4" stroke-linecap="round" stroke-linejoin="round" d="M96.895 225.263c16.112 0 29.173-13.061 29.173-29.173s-13.061-29.173-29.173-29.173-29.173 13.061-29.173 29.173 13.061 29.173 29.173 29.173z"/></g></svg>