<?xml version="1.0" encoding="UTF-8"?>
<svg width="111px" height="111px" viewBox="0 0 111 111" version="1.1" xmlns="http://www.w3.org/2000/svg" xmlns:xlink="http://www.w3.org/1999/xlink">
    <!-- Generator: Sketch 58 (84663) - https://sketch.com -->
    <title>Joomla-logo-3d-vertical-RGB-DB</title>
    <desc>Created with Sketch.</desc>
    <defs>
        <linearGradient x1="22.0814634%" y1="37.871193%" x2="77.804878%" y2="59.5554941%" id="linearGradient-1">
            <stop stop-color="#FFFFFF" offset="0%"></stop>
            <stop stop-color="#5AA426" offset="100%"></stop>
        </linearGradient>
        <linearGradient x1="21.9111751%" y1="13.8809783%" x2="76.5470143%" y2="85.9108696%" id="linearGradient-2">
            <stop stop-color="#FFFFFF" offset="0%"></stop>
            <stop stop-color="#5AA426" offset="100%"></stop>
        </linearGradient>
        <linearGradient x1="49.2415841%" y1="25.10123%" x2="50.6805927%" y2="73.8648473%" id="linearGradient-3">
            <stop stop-color="#FFFFFF" offset="0%"></stop>
            <stop stop-color="#FC8F30" offset="100%"></stop>
        </linearGradient>
        <linearGradient x1="74.7036986%" y1="49.2430705%" x2="26.15949%" y2="50.6788381%" id="linearGradient-4">
            <stop stop-color="#FFFFFF" offset="0%"></stop>
            <stop stop-color="#E52626" offset="100%"></stop>
        </linearGradient>
        <linearGradient x1="9.41630435%" y1="81.5599754%" x2="85.4467391%" y2="23.890976%" id="linearGradient-5">
            <stop stop-color="#FFFFFF" offset="0%"></stop>
            <stop stop-color="#0D6DAB" offset="100%"></stop>
        </linearGradient>
        <linearGradient x1="49.7247525%" y1="5.50362319%" x2="49.7247525%" y2="93.5869565%" id="linearGradient-6">
            <stop stop-color="#FFFFFF" offset="0%"></stop>
            <stop stop-color="#5AA426" offset="100%"></stop>
        </linearGradient>
        <linearGradient x1="49.7039604%" y1="2.88405797%" x2="49.7039604%" y2="94.9391304%" id="linearGradient-7">
            <stop stop-color="#FFFFFF" offset="0%"></stop>
            <stop stop-color="#FC8F30" offset="100%"></stop>
        </linearGradient>
        <linearGradient x1="50.072973%" y1="0.212905799%" x2="50.072973%" y2="93.597092%" id="linearGradient-8">
            <stop stop-color="#FFFFFF" offset="0%"></stop>
            <stop stop-color="#0D6DAB" offset="100%"></stop>
        </linearGradient>
        <linearGradient x1="50.4993243%" y1="0.212905799%" x2="50.4993243%" y2="93.597092%" id="linearGradient-9">
            <stop stop-color="#FFFFFF" offset="0%"></stop>
            <stop stop-color="#E52626" offset="100%"></stop>
        </linearGradient>
    </defs>
    <g id="Page-1" stroke="none" stroke-width="1" fill="none" fill-rule="evenodd">
        <g id="Joomla-logo-3d-vertical-RGB-DB" fill-rule="nonzero">
            <g id="brandmark-3d">
                <path d="M20.3,55.8 L18.2,53.7 C11.6,47.1 9.6,37.7 12.1,29.4 C5.5,27.9 0.6,22 0.6,15 C0.6,6.9 7.2,0.3 15.3,0.3 C22.6,0.3 28.7,5.7 29.9,12.7 C37.9,10.8 46.6,13 52.8,19.2 L53.6,20 L42.7,30.9 L41.9,30.1 C38.4,26.6 32.6,26.6 29.1,30.1 C25.6,33.6 25.6,39.4 29.1,42.9 L31.2,45 L42.1,55.9 L53.6,67.4 L42.7,78.3 L31.2,66.8 L20.3,55.8 L20.3,55.8 Z" id="j-green_2_" fill="#5AA426"></path>
                <path d="M32.5,43.6 L44,32.1 L54.9,21.2 L57,19.1 C63.5,12.6 72.9,10.5 81.2,12.9 C82.2,5.7 88.4,0.2 95.8,0.2 C103.9,0.2 110.5,6.8 110.5,14.9 C110.5,22.4 104.9,28.6 97.7,29.5 C100.1,37.8 98,47 91.5,53.5 L90.7,54.4 L79.8,43.5 L80.6,42.7 C84.1,39.2 84.1,33.4 80.6,29.9 C77.1,26.4 71.4,26.4 67.8,29.9 L65.7,32 L54.9,43 L43.4,54.5 L32.5,43.6 L32.5,43.6 Z" id="j-yellow_1_" fill="#FC8F30"></path>
                <path d="M81.5,98.5 C73.1,101.1 63.6,99 57,92.4 L56.2,91.6 L67.1,80.7 L67.9,81.5 C71.4,85 77.2,85 80.7,81.5 C84.2,78 84.2,72.3 80.7,68.7 L78.6,66.6 L67.7,55.7 L56.2,44.2 L67,33.4 L78.5,44.9 L89.4,55.8 L91.5,57.9 C97.8,64.2 99.9,73 98,81 C105.2,82 110.7,88.2 110.7,95.6 C110.7,103.7 104.1,110.3 96,110.3 C88.8,110.3 82.8,105.2 81.5,98.5 L81.5,98.5 Z" id="j-red_2_" fill="#E52626"></path>
                <path d="M77.2,67.9 L65.7,79.4 L54.8,90.3 L52.7,92.4 C46.4,98.7 37.6,100.8 29.5,98.8 C28,105.4 22.1,110.2 15.1,110.2 C7,110.2 0.4,103.6 0.4,95.5 C0.4,88.5 5.2,82.7 11.7,81.1 C9.6,73 11.8,64.1 18.1,57.8 L18.9,57 L29.8,67.9 L29,68.7 C25.5,72.2 25.5,78 29,81.5 C32.5,85 38.3,85 41.8,81.5 L43.9,79.4 L54.8,68.5 L66.3,57 L77.2,67.9 L77.2,67.9 Z" id="j-blue_2_" fill="#0D6DAB"></path>
                <path d="M30.1,14.6 L30.3,14.5 C37.3,12.9 45,14.6 50.6,19.9 L48.6,21.9 C41.7,14.1 30.1,14.6 30.1,14.6 L30.1,14.6 Z" id="reflection3-green_1_" fill="url(#linearGradient-1)"></path>
                <path d="M24.9,33 C23.7,36.8 24.6,41.2 27.6,44.2 L29.7,46.3 L40.6,57.2 L50.7,67.3 L48.2,69.8 L26.9,48.8 L25.1,46.3 C22,42.3 22.1,36.9 24.9,33 L24.9,33 Z" id="reflection2-green_1_" fill="url(#linearGradient-2)"></path>
                <path d="M66.5,19.7 L64,22.2 L51.2,34.8 L39.4,46.4 L36.3,43.6 L60.9,19 L63.8,16.8 C68.6,13.3 76.2,12.9 80.6,15.1 C80.6,15.2 71.9,14.2 66.5,19.7 Z" id="reflection2-yellow_1_" fill="url(#linearGradient-3)"></path>
                <path d="M90.9,67.2 L88.4,64.7 L75.8,51.9 L64.2,40.1 L67,37 L91.6,61.7 L93.8,64.6 C97.3,69.4 97.7,77 95.5,81.4 C95.4,81.3 96.3,72.7 90.9,67.2 Z" id="reflection2-red_1_" fill="url(#linearGradient-4)"></path>
                <path d="M32.3,86.2 C36.1,87.4 40.5,86.5 43.5,83.5 L45.6,81.4 L56.5,70.5 L66.6,60.4 L69.1,62.9 L48.1,84.2 L45.6,86 C41.7,89.1 36.2,89 32.3,86.2 L32.3,86.2 Z" id="reflection2-blue_1_" fill="url(#linearGradient-5)"></path>
                <path d="M5,9.8 C5,7.1 9.5,2.9 15.1,2.9 C20.7,2.9 25.2,7.3 25.2,9.8 C25.2,13.6 20.7,16.7 15.1,16.7 C9.5,16.7 5,13.6 5,9.8 L5,9.8 Z" id="reflection-green_1_" fill="url(#linearGradient-6)"></path>
                <path d="M86,9.7 C86,7 90.5,2.8 96.1,2.8 C101.7,2.8 106.2,7.2 106.2,9.7 C106.2,13.5 101.7,16.6 96.1,16.6 C90.5,16.6 86,13.5 86,9.7 L86,9.7 Z" id="reflection-yellow_1_" fill="url(#linearGradient-7)"></path>
                <path d="M5,90.5 C5,88.4 8.3,85.1 12.4,85.1 C16.5,85.1 19.8,88.5 19.8,90.5 C19.8,93.5 16.5,95.9 12.4,95.9 C8.3,96 5,93.5 5,90.5 L5,90.5 Z" id="reflection-blue_1_" fill="url(#linearGradient-8)"></path>
                <path d="M91.2,90.5 C91.2,88.4 94.5,85.1 98.6,85.1 C102.7,85.1 106,88.5 106,90.5 C106,93.5 102.7,95.9 98.6,95.9 C94.6,96 91.2,93.5 91.2,90.5 L91.2,90.5 Z" id="reflection-red_1_" fill="url(#linearGradient-9)"></path>
            </g>
        </g>
    </g>
</svg>