<svg version="1.1" id="Layer_1" xmlns="http://www.w3.org/2000/svg" x="0" y="0" viewBox="0 0 296.6 296.6" xml:space="preserve"><style>.st1{fill:#fff}.st2,.st3{fill:#ffeda1;stroke:#3a196a;stroke-width:3;stroke-linecap:round;stroke-linejoin:round;stroke-miterlimit:10}.st3{fill:none}</style><circle cx="148.3" cy="148.3" r="139.9" fill="#f3afc8"/><path class="st1" d="M110 65.8h-4.8V61c0-1-.8-1.8-1.8-1.8s-1.8.8-1.8 1.8v4.8h-4.8c-1 0-1.8.8-1.8 1.8s.8 1.8 1.8 1.8h4.8v4.8c0 1 .8 1.8 1.8 1.8s1.8-.8 1.8-1.8v-4.8h4.8c1 0 1.8-.8 1.8-1.8 0-.9-.8-1.8-1.8-1.8zM95.8 101.4c-3.9-2.2-8.8-.9-11 3-2.2 3.9-.9 8.8 3 11 1.3.7 2.7 1.1 4 1.1 2.8 0 5.5-1.4 7-4 2.2-3.9.8-8.9-3-11.1zm.4 9.5c-1.4 2.5-4.6 3.3-7 1.9-2.5-1.4-3.3-4.6-1.9-7 .7-1.2 1.8-2 3.1-2.4.4-.1.9-.2 1.3-.2.9 0 1.8.2 2.6.7 2.5 1.4 3.3 4.6 1.9 7zM226.9 141c-3.1-1.8-7.1-.7-8.9 2.4-1.8 3.1-.7 7.1 2.4 8.9 1 .6 2.1.9 3.2.9 2.2 0 4.4-1.2 5.6-3.2 1.9-3.3.8-7.2-2.3-9zm.3 7.6c-1.1 1.9-3.6 2.6-5.5 1.5s-2.6-3.6-1.5-5.5c.5-.9 1.4-1.6 2.4-1.9.3-.1.7-.1 1-.1.7 0 1.4.2 2 .5 2 1.1 2.7 3.6 1.6 5.5zM186 67.9h-5.4c-3.3 0-6-2.7-6-6v-5.4c0-3.3 2.7-6 6-6h5.4c3.3 0 6 2.7 6 6v5.4c0 3.3-2.7 6-6 6zm-5.3-14.3c-1.6 0-3 1.3-3 3V62c0 1.6 1.3 3 3 3h5.4c1.6 0 3-1.3 3-3v-5.4c0-1.6-1.3-3-3-3h-5.4zM203.8 110.1c-1.5 0-3.1-.6-4.2-1.7l-3.8-3.8c-2.3-2.3-2.3-6.1 0-8.5l3.8-3.8c2.3-2.3 6.1-2.3 8.5 0l3.8 3.8c2.3 2.3 2.3 6.1 0 8.5l-3.8 3.8c-1.3 1.1-2.8 1.7-4.3 1.7zm0-16.6c-.8 0-1.5.3-2.1.9l-3.8 3.8c-1.2 1.2-1.2 3 0 4.2l3.8 3.8c1.2 1.2 3 1.2 4.2 0l3.8-3.8c1.2-1.2 1.2-3 0-4.2l-3.8-3.8c-.6-.6-1.4-.9-2.1-.9z"/><g><circle class="st2" cx="148.3" cy="176.7" r="47.7"/><path class="st3" d="M88.1 176.7c0-33.2 26.9-60.2 60.2-60.2s60.2 26.9 60.2 60.2"/><path class="st3" d="M179.4 196.8c-6.6 10.2-18.1 17-31.1 17-20.5 0-37-16.6-37-37s16.6-37 37-37M176.2 152.3c5.7 6.5 9.1 15 9.1 24.4M160.5 141.7c4 1.4 7.6 3.4 10.8 6"/><path d="M162.6 169.1c0-8.1-6.7-14.6-14.9-14.3-7.4.3-13.5 6.5-13.7 13.9-.2 5 2.3 9.5 6.1 12.2 1.2.8 1.8 2.2 1.8 3.6v14.2h12.8v-14.2c0-1.4.7-2.8 1.9-3.7 3.6-2.6 6-6.9 6-11.7z" fill="#3a196a"/><path class="st2" d="M145.2 88.3h6.2c6.8 0 12.4 5.5 12.4 12.4v17.9c5.3 1.4 10.3 3.5 14.8 6.2V93.5c0-11.8-9.6-21.3-21.3-21.3h-18c-11.8 0-21.3 9.6-21.3 21.3v31.2c4.6-2.7 9.6-4.8 14.8-6.2v-17.9c0-6.8 5.6-12.3 12.4-12.3z"/></g></svg>