<svg version="1.1" id="Layer_1" xmlns="http://www.w3.org/2000/svg" x="0" y="0" viewBox="0 0 296.6 296.6" xml:space="preserve"><style>.st1{fill:#c6dba1}.st2,.st3{fill:#ffeda1;stroke:#3a196a;stroke-width:3;stroke-linecap:round;stroke-linejoin:round;stroke-miterlimit:10}.st3{fill:none}</style><circle cx="148.3" cy="148.3" r="139.9" fill="#efffd7"/><path class="st1" d="M111 66.2h-5v-5c0-1-.8-1.9-1.9-1.9s-1.9.8-1.9 1.9v5h-5c-1 0-1.9.8-1.9 1.9s.8 1.9 1.9 1.9h5v5c0 1 .8 1.9 1.9 1.9S106 76 106 75v-5h5c1 0 1.9-.8 1.9-1.9s-.8-1.9-1.9-1.9zM96.2 103.1c-4-2.3-9.1-.9-11.5 3.1-2.3 4-.9 9.1 3.1 11.5 1.3.8 2.8 1.1 4.2 1.1 2.9 0 5.7-1.5 7.3-4.2 2.3-4 1-9.2-3.1-11.5zm.5 10c-1.5 2.5-4.7 3.4-7.3 2-2.5-1.5-3.4-4.7-2-7.3.7-1.2 1.9-2.1 3.2-2.5.5-.1.9-.2 1.4-.2.9 0 1.8.2 2.7.7 2.6 1.4 3.4 4.7 2 7.3zM232.4 144.2c-3.2-1.9-7.3-.8-9.2 2.5-1.9 3.2-.8 7.3 2.5 9.2 1.1.6 2.2.9 3.4.9 2.3 0 4.6-1.2 5.8-3.4 1.8-3.2.7-7.3-2.5-9.2zm.2 7.9c-1.1 2-3.7 2.7-5.7 1.5-2-1.1-2.7-3.7-1.5-5.7.6-1 1.5-1.6 2.5-1.9.4-.1.7-.1 1.1-.1.7 0 1.4.2 2.1.6 2 1.1 2.7 3.6 1.5 5.6zM208.4 70.2h-4.6c-2.8 0-5.1-2.3-5.1-5.1v-4.6c0-2.8 2.3-5.1 5.1-5.1h4.6c2.8 0 5.1 2.3 5.1 5.1v4.6c0 2.8-2.3 5.1-5.1 5.1zm-4.6-12.3c-1.4 0-2.6 1.1-2.6 2.6v4.6c0 1.4 1.1 2.6 2.6 2.6h4.6c1.4 0 2.6-1.1 2.6-2.6v-4.6c0-1.4-1.1-2.6-2.6-2.6h-4.6zM208.3 112.1c-1.6 0-3.2-.6-4.4-1.8l-3.9-3.9c-2.4-2.4-2.4-6.4 0-8.8l3.9-3.9c2.4-2.4 6.4-2.4 8.8 0l3.9 3.9c2.4 2.4 2.4 6.4 0 8.8l-3.9 3.9c-1.2 1.2-2.8 1.8-4.4 1.8zm0-17.1c-.8 0-1.6.3-2.2.9l-3.9 3.9c-1.2 1.2-1.2 3.2 0 4.4l3.9 3.9c1.2 1.2 3.2 1.2 4.4 0l3.9-3.9c1.2-1.2 1.2-3.2 0-4.4l-3.9-3.9c-.6-.6-1.4-.9-2.2-.9z"/><circle class="st2" cx="148.3" cy="176.7" r="47.7"/><path class="st3" d="M88.1 176.7c0-33.2 26.9-60.2 60.2-60.2s60.2 26.9 60.2 60.2"/><path class="st3" d="M179.4 196.8c-6.6 10.2-18.1 17-31.1 17-20.5 0-37-16.6-37-37s16.6-37 37-37M176.2 152.3c5.7 6.5 9.1 15 9.1 24.4M160.5 141.7c4 1.4 7.6 3.4 10.8 6"/><path d="M162.6 169.1c0-8.1-6.7-14.6-14.9-14.3-7.4.3-13.5 6.5-13.7 13.9-.2 5 2.3 9.5 6.1 12.2 1.2.8 1.8 2.2 1.8 3.6v14.2h12.8v-14.2c0-1.4.7-2.8 1.9-3.7 3.6-2.6 6-6.9 6-11.7z" fill="#3a196a"/><g><path class="st2" d="M157.9 79.8l5.9 1.9c6.5 2.1 10.1 9.1 8 15.6l-5.5 17c4.6 2.9 8.7 6.5 12.2 10.4L188 95c3.6-11.2-2.6-23.2-13.8-26.8l-17.1-5.5c-11.2-3.6-23.2 2.6-26.8 13.8l-9.5 29.7c5.2-1.2 10.6-1.6 16-1.4l5.5-17c2.1-6.5 9.1-10.1 15.6-8z"/></g></svg>