<svg version="1.1" id="Layer_1" xmlns="http://www.w3.org/2000/svg" x="0" y="0" viewBox="0 0 296.6 296.6" xml:space="preserve"><style>.st1{fill:#352068}.st3,.st5{fill:none;stroke:#3a196a;stroke-width:4;stroke-linecap:round;stroke-linejoin:round;stroke-miterlimit:10}.st5{stroke:#d6a463;stroke-width:5}</style><circle cx="148.8" cy="148.5" r="139.9" fill="#e7e6ff"/><path class="st1" d="M227 68.6h-4.8v-4.8c0-1-.8-1.8-1.8-1.8s-1.8.8-1.8 1.8v4.8h-4.8c-1 0-1.8.8-1.8 1.8s.8 1.8 1.8 1.8h4.8V77c0 1 .8 1.8 1.8 1.8s1.8-.8 1.8-1.8v-4.8h4.8c1 0 1.8-.8 1.8-1.8.1-1-.8-1.8-1.8-1.8zM211.4 90.9c-3.9-2.2-8.8-.9-11 3-2.2 3.9-.9 8.8 3 11 1.3.7 2.7 1.1 4 1.1 2.8 0 5.5-1.4 7-4 2.2-3.9.8-8.9-3-11.1zm.4 9.6c-1.4 2.5-4.6 3.3-7 1.9-2.5-1.4-3.3-4.6-1.9-7 .7-1.2 1.8-2 3.1-2.4.4-.1.9-.2 1.3-.2.9 0 1.8.2 2.6.7 2.5 1.4 3.3 4.5 1.9 7zM251 119.1c-3.1-1.8-7.1-.7-8.9 2.4-1.8 3.1-.7 7.1 2.4 8.9 1 .6 2.1.9 3.2.9 2.2 0 4.4-1.2 5.6-3.2 1.8-3.2.8-7.2-2.3-9zm.2 7.6c-1.1 1.9-3.6 2.6-5.5 1.5s-2.6-3.6-1.5-5.5c.5-.9 1.4-1.6 2.4-1.9.3-.1.7-.1 1-.1.7 0 1.4.2 2 .5 2 1.2 2.7 3.6 1.6 5.5z"/><path d="M175.7 92.1h0c-1.5-1.5-3.5-2.3-5.6-2.3h-66.4c-3.8 0-7 2.7-7.7 6.4l-18.5 97.4c-2.1 10.8 6.2 20.9 17.3 20.9h97.3c6 0 11.5-3 14.8-8l26.1-40.3c3.4-5.2-.4-12.2-6.6-12.2h-33.9c-2.4 0-4.6 1.1-6.1 2.9l-7.9 9.8c-1.5 1.9-3.8 2.9-6.1 2.9h-32.3c-1.4 0-2.8.4-4 1.1l-20.8 13c-5.9 3.5-13.3-1.7-11.7-8.5l12.6-63.7c.8-3.6 4-6.2 7.7-6.2l46.6.2c6.6.1 10.2-8.4 5.2-13.4z" fill="#ffd599" stroke="#3a196a" stroke-width="4" stroke-linecap="round" stroke-linejoin="round" stroke-miterlimit="10"/><path class="st3" d="M114.7 167.3l15.7-30.3c2.7-5.2 8.1-8.5 14-8.5h64.5c5.4 0 9.1 5.5 7 10.5l-2.1 5"/><path class="st3" d="M196.6 116.9h-58.2c-6 0-11.5 3.6-13.8 9.2l-5 12.1"/><path d="M178.3 60.6h-5.4c-2.5 0-4.5-2-4.5-4.5v-5.4c0-2.5 2-4.5 4.5-4.5h5.4c2.5 0 4.5 2 4.5 4.5v5.4c0 2.5-2 4.5-4.5 4.5z" fill="none" stroke="#3a196a" stroke-width="3" stroke-linecap="round" stroke-linejoin="round" stroke-miterlimit="10"/><path class="st5" d="M163.9 207h26.2M132 207h13M89 173l-3.3 17.2c-1.6 8.7 4.8 16.7 13.4 16.7h23.3M95.9 137l-3.7 19.5M101 110.5l-2.7 14.2"/></svg>