<svg version="1.1" id="Layer_1" xmlns="http://www.w3.org/2000/svg" x="0" y="0" viewBox="0 0 296.6 296.6" xml:space="preserve"><style>.st1{fill:none;stroke:#3a196a;stroke-width:3;stroke-linecap:round;stroke-linejoin:round;stroke-miterlimit:10}.st3{fill:#f7941d}</style><circle cx="148.3" cy="148.3" r="139.9" fill="#fff9c5"/><path class="st1" d="M98.1 114H213c4.2 0 7.5 3.4 7.5 7.5v55.8M70.8 201.3v-79.8c0-4.2 3.4-7.5 7.5-7.5H83"/><path class="st1" d="M240.3 135.7v40.9c0 4.2-3.4 7.5-7.5 7.5H98.1c-4.2 0-7.5-3.4-7.5-7.5v-74c0-4.2 3.4-7.5 7.5-7.5H166M220.5 95.1h12.3c4.2 0 7.5 3.4 7.5 7.5v3.9"/><path d="M216.4 223.7H74.9c-2.3 0-4.1-1.8-4.1-4.1v-6.5c0-2.3 1.8-4.1 4.1-4.1h141.5c2.3 0 4.1 1.8 4.1 4.1v6.5c0 2.3-1.8 4.1-4.1 4.1z" fill="#d5d4ea" stroke="#3a196a" stroke-width="3" stroke-linecap="round" stroke-linejoin="round" stroke-miterlimit="10"/><path class="st1" d="M109.5 223.7v-3.4c0-2.2 1.8-4 4-4h64.3c2.2 0 4 1.8 4 4v3.4M220.5 190.5v10.8"/><circle class="st1" cx="177" cy="95.1" r="4.5"/><circle class="st1" cx="193.8" cy="95.1" r="4.5"/><circle class="st1" cx="210.6" cy="95.1" r="4.5"/><path class="st3" d="M62.9 96.6c3.5 0 6.4 2.9 6.4 6.4 0 .8.7 1.5 1.5 1.5s1.5-.7 1.5-1.5c0-3.5 2.9-6.4 6.4-6.4.8 0 1.5-.7 1.5-1.5s-.7-1.5-1.5-1.5c-3.5 0-6.4-2.9-6.4-6.4 0-.8-.7-1.5-1.5-1.5s-1.5.7-1.5 1.5c0 3.5-2.9 6.4-6.4 6.4-.8 0-1.5.7-1.5 1.5s.6 1.5 1.5 1.5zm7.9-4.4c.7 1.1 1.7 2.1 2.8 2.8-1.1.7-2.1 1.7-2.8 2.8-.7-1.1-1.7-2.1-2.8-2.8 1.1-.7 2.1-1.6 2.8-2.8zM232.4 122.7c3.5 0 6.4 2.9 6.4 6.4 0 .8.7 1.5 1.5 1.5s1.5-.7 1.5-1.5c0-3.5 2.9-6.4 6.4-6.4.8 0 1.5-.7 1.5-1.5s-.7-1.5-1.5-1.5c-3.5 0-6.4-2.9-6.4-6.4 0-.8-.7-1.5-1.5-1.5s-1.5.7-1.5 1.5c0 3.5-2.9 6.4-6.4 6.4-.8 0-1.5.7-1.5 1.5s.7 1.5 1.5 1.5zm7.9-4.4c.7 1.1 1.7 2.1 2.8 2.8-1.1.7-2.1 1.7-2.8 2.8-.7-1.1-1.7-2.1-2.8-2.8 1.1-.7 2.1-1.6 2.8-2.8zM110.1 71.7c2.3 0 4.2 1.9 4.2 4.2 0 .5.4 1 1 1s1-.4 1-1c0-2.3 1.9-4.2 4.2-4.2.5 0 1-.4 1-1s-.4-1-1-1c-2.3 0-4.2-1.9-4.2-4.2 0-.5-.4-1-1-1s-1 .4-1 1c0 2.3-1.9 4.2-4.2 4.2-.5 0-1 .4-1 1s.4 1 1 1zm5.1-2.8c.5.7 1.1 1.4 1.8 1.8-.7.5-1.4 1.1-1.8 1.8-.5-.7-1.1-1.4-1.8-1.8.7-.4 1.3-1.1 1.8-1.8zM251.1 146.6c2.3 0 4.2 1.9 4.2 4.2 0 .5.4 1 1 1 .5 0 1-.4 1-1 0-2.3 1.9-4.2 4.2-4.2.5 0 1-.4 1-1s-.4-1-1-1c-2.3 0-4.2-1.9-4.2-4.2 0-.5-.4-1-1-1-.5 0-1 .4-1 1 0 2.3-1.9 4.2-4.2 4.2-.5 0-1 .4-1 1s.5 1 1 1zm5.2-2.8c.5.7 1.1 1.4 1.8 1.8-.7.5-1.4 1.1-1.8 1.8-.5-.7-1.1-1.4-1.8-1.8.7-.4 1.3-1.1 1.8-1.8zM77.4 50.8c5 0 9 4.1 9 9 0 1.2.9 2.1 2.1 2.1 1.2 0 2.1-.9 2.1-2.1 0-5 4.1-9 9-9 1.2 0 2.1-.9 2.1-2.1 0-1.2-.9-2.1-2.1-2.1-5 0-9-4.1-9-9 0-1.2-.9-2.1-2.1-2.1-1.2 0-2.1.9-2.1 2.1 0 5-4.1 9-9 9-1.2 0-2.1.9-2.1 2.1-.1 1.2.9 2.1 2.1 2.1zM88.5 43c1.5 2.3 3.4 4.2 5.7 5.7-2.3 1.5-4.2 3.4-5.7 5.7-1.5-2.3-3.4-4.2-5.7-5.7 2.3-1.5 4.2-3.4 5.7-5.7z"/><path d="M205.2 178.4H104.9c-3.7 0-6.8-3-6.8-6.8v-44.1c0-3.7 3-6.8 6.8-6.8h100.3c3.7 0 6.8 3 6.8 6.8v44.1c0 3.8-3.1 6.8-6.8 6.8z" fill="#fff"/><path d="M84.6 182v-63.2h-3.3c-3.3 0-6 2.7-6 6v70.3c0 4.2 3.4 7.5 7.5 7.5H206.7c3 0 5.4-2.4 5.4-5.4V191H93.5c-4.9 0-8.9-4-8.9-9z" fill="#3a196a"/></svg>