<svg version="1.1" id="Layer_1" xmlns="http://www.w3.org/2000/svg" x="0" y="0" viewBox="0 0 296.6 296.6" xml:space="preserve"><style>.st1{fill:none;stroke:#3a196a;stroke-width:3;stroke-linecap:round;stroke-linejoin:round;stroke-miterlimit:10}.st3{fill:#3a196a}.st4{fill:#fff}</style><circle cx="148.3" cy="148.3" r="139.9" fill="#c6f0f7"/><path class="st1" d="M98.1 114h115.7c3.7 0 6.7 3 6.7 6.7M70.8 201.3v-79.8c0-4.2 3.4-7.5 7.5-7.5H83"/><path class="st1" d="M155 184.1H98.1c-4.2 0-7.5-3.4-7.5-7.5v-74c0-4.2 3.4-7.5 7.5-7.5H166"/><path d="M216.4 223.7H74.9c-2.3 0-4.1-1.8-4.1-4.1v-6.5c0-2.3 1.8-4.1 4.1-4.1h141.5c2.3 0 4.1 1.8 4.1 4.1v6.5c0 2.3-1.8 4.1-4.1 4.1z" fill="#d5d4ea" stroke="#3a196a" stroke-width="3" stroke-linecap="round" stroke-linejoin="round" stroke-miterlimit="10"/><path class="st1" d="M109.5 223.7v-3.4c0-2.2 1.8-4 4-4h64.3c2.2 0 4 1.8 4 4v3.4M220.5 190.5v10.8"/><circle class="st1" cx="177" cy="95.1" r="4.5"/><circle class="st1" cx="193.8" cy="95.1" r="4.5"/><circle class="st1" cx="210.6" cy="95.1" r="4.5"/><path class="st3" d="M84.6 182v-63.2h-3.3c-3.3 0-6 2.7-6 6v70.3c0 4.2 3.4 7.5 7.5 7.5H206.7c3 0 5.4-2.4 5.4-5.4V191H93.5c-4.9 0-8.9-4-8.9-9zM262.9 106.2c-.7-2-2.4-3.5-4.4-3.9-2.1-.4-4.3.4-5.9 2.2l-19.4 22.3c-.2-.1-.4-.1-.7-.2-4.7-1.1-9.8.2-12.9 3.2-2.3 2.2-5.6 4.3-9.5 6.1-.1 0-.2.1-.2.1-8.6 4.1-19.6 7.2-26.6 7.4-.9 0-1.8.6-2 1.9-.2 2 1 7.9 4.9 14.5.5.9 1.1 1.8 1.7 2.7 2.5 3.7 6.3 8.2 11.9 12.2.1.1.3.2.4.3 4.9 3.5 11.1 6.7 18.9 9h.1c.8.2 1.6-.2 2.1-.9.5-.8 10.6-16.8 16.7-31 1.5-3.5 2.8-6.9 3.6-9.9.7-2.7.8-5.3.2-7.5l19.8-22.8c1.5-1.4 2.1-3.7 1.3-5.7zm-31.3 50.7l-3.6-3.8c-.7-.8-2-.8-2.7-.1-.8.7-.8 2-.1 2.7l4.6 4.8c-4.4 8.7-9.2 16.6-11.1 19.6-5.7-1.8-10.4-4.1-14.3-6.7 3.5-2.7 7.8-6.4 12.9-12.4.7-.8.6-2-.2-2.7-.8-.7-2-.6-2.7.2-5.3 6.2-9.8 10-13.3 12.5-4.6-3.5-7.7-7.2-9.9-10.4-.1-.2-.2-.3-.3-.5 5.6-1.4 11.7-3.2 18.4-6.6 1-.5 1.3-1.6.9-2.6-.5-1-1.6-1.3-2.6-.8-6.8 3.5-12.8 5.2-18.7 6.6-2.3-4.2-3.2-7.7-3.5-9.6 7.1-.6 16.9-3.4 25.1-7.2l4.6 4.8c.3.3.6.5 1 .6.6.1 1.3 0 1.8-.5.8-.7.8-2 .1-2.7l-3.8-4c1.4-.7 2.6-1.5 3.8-2.3l16 16.1c-.9 1.9-1.6 3.4-2.4 5zm3.8-8.5L221 133.8c.4-.4.9-.7 1.3-1.1 2.3-2.1 5.9-3 9.4-2.2 2.4.6 4.4 1.9 5.5 3.7.2.4.4.7.6 1.1v.1c.7 1.8.7 3.9 0 6.3-.6 2-1.4 4.3-2.4 6.7zm23.2-38.6l-18.7 21.5c-.8-1.1-1.8-2-3-2.8l18.7-21.4c.5-.6 1.3-1.2 2.2-1 .7.1 1.3.7 1.5 1.4.2.7 0 1.5-.7 2.3z"/><path class="st4" d="M200.2 175.3c-.1-.1-.3-.2-.4-.3-5.5-4.1-9.3-8.5-11.9-12.2-.6-.9-1.2-1.8-1.7-2.7-3.9-6.6-5.1-12.6-4.9-14.5.2-1.3 1.1-1.9 2-1.9 7-.2 18-3.3 26.6-7.4.1 0 .1-.1.2-.1l1.8-.9v-7.5c0-3.7-3-6.8-6.8-6.8H104.9c-3.7 0-6.8 3-6.8 6.8v44.1c0 3.7 3 6.8 6.8 6.8H205c-1.7-1.3-3.3-2.3-4.8-3.4z"/><path class="st3" d="M177.9 142c1-4.2-1.7-8.4-5.9-9.4s-8.4 1.7-9.4 5.9 1.7 8.4 5.9 9.4c4.2.9 8.4-1.7 9.4-5.9zm-11.5-2.7c.5-2.1 2.6-3.5 4.7-3s3.5 2.6 3 4.7-2.6 3.5-4.7 3c-2.1-.4-3.5-2.5-3-4.7z"/><path class="st4" d="M78.4 96.8c1-4.2-1.7-8.4-5.9-9.4s-8.4 1.7-9.4 5.9 1.7 8.4 5.9 9.4c4.3 1 8.5-1.7 9.4-5.9zm-11.5-2.6c.5-2.1 2.6-3.5 4.7-3s3.5 2.6 3 4.7-2.6 3.5-4.7 3-3.5-2.6-3-4.7zM119.5 71.8c.5-2.4-1-4.8-3.3-5.3-2.4-.5-4.8 1-5.3 3.3-.5 2.4 1 4.8 3.3 5.3 2.4.6 4.8-.9 5.3-3.3zm-6.5-1.5c.3-1.2 1.5-2 2.7-1.7 1.2.3 2 1.5 1.7 2.7-.3 1.2-1.5 2-2.7 1.7-1.2-.3-1.9-1.5-1.7-2.7zM97.7 50.8c1.2-5.1-2-10.1-7.1-11.3-5.1-1.2-10.1 2-11.3 7.1-1.2 5.1 2 10.1 7.1 11.3 5.1 1.1 10.1-2.1 11.3-7.1zM83 47.4c.7-3.1 3.7-5 6.8-4.3 3 .7 5 3.7 4.3 6.8-.7 3.1-3.7 5-6.8 4.3-3.1-.7-5-3.7-4.3-6.8z"/><path class="st3" d="M172.4 153.8c-2.9-.7-5.8 1.2-6.5 4.1-.7 2.9 1.2 5.9 4.1 6.5 2.9.7 5.8-1.2 6.5-4.1.6-2.9-1.2-5.8-4.1-6.5zm-1.8 7.8c-1.3-.3-2.2-1.6-1.9-3 .3-1.3 1.6-2.2 3-1.9 1.3.3 2.2 1.6 1.9 3-.3 1.3-1.7 2.2-3 1.9zM185.2 132.9c2.8.6 5.6-1.1 6.2-3.9.6-2.8-1.1-5.6-3.9-6.2-2.8-.6-5.6 1.1-6.2 3.9-.7 2.8 1.1 5.6 3.9 6.2zm1.7-7.7c1.4.3 2.3 1.7 2 3.2-.3 1.4-1.7 2.3-3.2 2-1.4-.3-2.3-1.7-2-3.2.4-1.4 1.8-2.3 3.2-2zM220.1 150.3c.3.3.6.5 1 .6.6.1 1.3 0 1.8-.5.8-.7.8-2 .1-2.7-.7-.8-2-.8-2.7-.1-.9.7-1 2-.2 2.7z"/></svg>