<svg xmlns="http://www.w3.org/2000/svg" width="26" height="26" viewBox="0 0 26 26">
  <g fill="none" fill-rule="evenodd">
    <g fill-rule="nonzero">
      <g>
        <g>
          <g>
            <path d="M4.754955 13.046847l-.491892-.491892C2.717117 11.009009 2.24865 8.807207 2.834234 6.863063 1.288288 6.511712.140541 5.12973.140541 3.49009c0-1.897297 1.545945-3.443243 3.443243-3.443243 1.70991 0 3.138739 1.241441 3.396396 2.88108 1.873874-.445044 3.911712.070271 5.363964 1.522523l.187387.187388L9.978378 7.19099l-.187387-.187387c-.81982-.81982-2.178378-.81982-2.998198 0s-.81982 2.178378 0 2.998198l.491892.491892 2.553153 2.553153 2.693694 2.693694-2.553154 2.553153L7.284685 15.6l-2.52973-2.553153z" fill="#28466a" class="j-green"/>
            <path d="M7.612613 10.212613l2.693693-2.693694 2.553154-2.553153.491891-.491892c1.522523-1.522523 3.724325-2.014415 5.668469-1.452252.234234-1.686487 1.663063-2.974775 3.41982-2.974775 1.897297 0 3.443243 1.545946 3.443243 3.443243 0 1.756757-1.311712 3.20901-2.998198 3.41982.562162 1.944144.07027 4.099099-1.452253 5.621621l-.187387.187388-2.553153-2.553153.187387-.187388c.81982-.81982.81982-2.178378 0-2.998198s-2.154955-.81982-2.998198 0l-.491892.491892-2.553153 2.6-2.693694 2.693694-2.52973-2.553153z" fill="#28466a" class="j-orange"/>
            <path d="M19.066667 23.048649c-1.967568.609009-4.16937.117117-5.73874-1.42883l-.187387-.187387 2.553154-2.553153.187387.187388c.81982.81982 2.178378.81982 2.998198 0s.81982-2.154955 0-2.998198l-.491892-.491892-2.553153-2.553154-2.693694-2.693693 2.553154-2.506307 2.693693 2.693694 2.553154 2.553153.491891.491892c1.475676 1.475676 1.967568 3.513514 1.522523 5.387387 1.686486.234235 2.974775 1.686487 2.974775 3.41982 0 1.897298-1.545946 3.443244-3.443243 3.443244-1.70991 0-3.091892-1.171172-3.41982-2.763964z" fill="#28466a" class="j-red"/>
            <path d="M18.082883 15.904504l-2.693694 2.693694-2.553153 2.553153-.491892.491892c-1.475675 1.475676-3.536937 1.967568-5.434234 1.4991-.351351 1.522522-1.733333 2.67027-3.372973 2.67027-1.897297 0-3.443243-1.545946-3.443243-3.443244 0-1.63964 1.124324-2.998198 2.646847-3.34955-.491892-1.897296.023423-3.981981 1.499099-5.457657l.187387-.187387 2.553153 2.553153-.187387.187387c-.81982.81982-.81982 2.154955 0 2.998199.81982.81982 2.178378.81982 2.998198 0l.491892-.491892 2.553153-2.553153 2.693694-2.693694 2.553153 2.52973z" fill="#28466a" class="j-blue"/>
          </g>
        </g>
      </g>
    </g>
  </g>
</svg>