<svg xmlns="http://www.w3.org/2000/svg" width="154.8" height="48">
  <style>
    .st1{fill:#081849}.st2{fill:#141721}.st3{fill:#e0351e}.st4{fill:#fff}.st7{fill:#b22618}.st8{fill:#fc7263}.st9{fill:#dbdbdb}
  </style>
  <path d="M132.7 43.2l8.3.2 8.2.7s5.6-.1 5-3.4c-1-4.8-7.5-7.6-10.3-7.9l-5-.6s-3 2.9-7.2 2.3c-4.3-.6-7-1-7-1s-2.1 2.5.1 5 8.8 2 8.8 2l-.9 2.7z" fill="#0c1f6d"/>
  <path class="st1" d="M141.2 42.9s11.1 1 10.9-2l-8.3-8.1s5.9 1.3 9.6 5.1.5 7.7-9.9 5.8l-2.5-.3.2-.5z"/>
  <path class="st2" d="M138.2 42.4c1.9-1.9 4.8-2.9 7.4-2.8.5 0 1.6-.7.6-.7-3.4-.1-7 1.2-9.4 3.6-.3.4 1.2.2 1.4-.1z"/>
  <path class="st3" d="M125.6 33.7s.8-2.9 0-2.9c-.8-.1-1.8 3.5-1.8 3.5l1.1-.6h.7z"/>
  <path class="st2" d="M142 32.8c4 .8 10 2.7 11.5 6.9 2 5.8-8.5 4-11.6 3.4-.3-.1-1.2.4-.6.5 2.9.5 12.5 2.4 13.5-2 1.2-5.7-8.1-8.6-12.1-9.4-.4 0-1.3.5-.7.6z"/>
  <path class="st1" d="M133.7 40.4l1.6-3.4s-3.1 3.4-9 2.3c-.1.1 2.1 1 7.4 1.1z"/>
  <path class="st2" d="M132 43.7l.1-.4 1.1-2.6c-7.3 0-9.4-2.1-9.9-3.8-.4-1.6.5-3.1 1-3.4l.3.4c-.3.2-1.1 1.4-.7 2.9.4 1.5 2.4 3.4 9.6 3.4h.6l-.2.4s-.5 1-1.1 2.5l5.5-.7.1.5-6.4.8zm-.4-9c-1.9 0-4.3-.3-7.2-1l.1-.5c11.2 2.8 14.4-1.4 14.4-1.5l.4.3c0 .2-1.9 2.7-7.7 2.7zm-8.3.1l.2-.6c.3-1.1 1.2-3.7 2.1-3.6.2 0 .3.1.4.2.4.6-.1 2.6-.2 3l-.1.2-.9-.1-1.5.9zm2.3-3.7c-.3 0-.9 1.2-1.4 2.6l.6-.4.6.1c.3-.8.4-2 .2-2.3zm-1.5 7.1c.1.2.5.2.7.2h.5s.1 0 .1-.1c.2 0 .4 0 .6-.1.5-.1 1.7-.3 1.9-.8.2-.1.4-.2.6-.4.3-.3.5-.8.3-1.2l-.3-.3c-.1-.2-.4-.3-.6-.4-.1-.5-.7-1.1-1.1-1.3l-2.7-.8c.1.1-2.2 2.1 0 5.2zm.4-4.5c.7.1 1.8.2 2.3.6.3.2.5.4.7.8v.1h-.2c-.9-.1-1.8-.1-2.6-.4 0 0-.1 0 0 .1.7.3 1.4.6 2.1.8.4.1.7.1 1.1.1.3 0 .5.1.8.2l.1.3c.1.6-.6.7-1.1.8-.7.1-1.3.2-2 0s-1.1-.5-1.6-.9c.5.8 1.2 1.3 2.1 1.5.2 0 .4.1.5.1l-.6.2c-.3.1-.6.2-1 .2-.2-.1-.5-.1-.7-.3.1-.2-1.6-2 .1-4.2z"/>
  <path class="st3" d="M124.5 33.7c.7.1 1.8.2 2.3.6.3.2.5.4.7.8v.1h-.2c-.9-.1-1.8-.1-2.6-.4 0 0-.1 0 0 .1.7.3 1.4.6 2.1.8.4.1.7.1 1.1.1.3 0 .5.1.8.2l.1.3c.1.6-.6.7-1.1.8-.7.1-1.3.2-2 0s-1.1-.5-1.6-.9c.5.8 1.2 1.3 2.1 1.5.2 0 .4.1.5.1l-.6.2c-.3.1-.6.2-1 .2-.2-.1-.5-.1-.7-.3.1-.2-1.6-2 .1-4.2zm29.3-18.6c-.8 1.7-2.3 2-2.3 2 .5-.3.9-1.3.9-1.3-1.1.8-2.8.5-2.8.5-2.1-1.8 1.9-7.9-2.8-12.5-4.7-4.6-9.5-3.7-9.5-3.7 1.6.4 3.3 2.5 2.7 6.3-.2 1.3 0 2.7.2 3.5-2.1 0-4.7.3-5.8-.2-1.5-.7-1.1-1.9-.8-2.4l-.1.1c.1-.3.3-.4.3-.4-2.8 1.1-1.8 3.7-1.8 3.7-2-.3-3.1.5-3.1.5-1.6-1.4-6.2-1.2-7.5-1-1.3.2-6.7.8-6.7.8.9.6 3.5.4 6.2 1.5s5.1 3.9 5.1 3.9c-1.7 3.6.8 6.4.8 6.4-.9-2.6 1.1-4 1.1-4 .3 2.3 2.9 2.3 2.9 2.3-.6 2.6-2.9 1.3-2.9 1.3 0 1.4.8 2.7 1.3 3.4-.2.1-.4.1-.5.2-.9.3-4.8 1.4-2.6 2.7.5.3.9.5 1.3.6.6.7 2.3 2.2 5.7 1.5l1.2-.3s5.5 1.3 4.9 2.4c-.6 1.1-1.2 2.8.9 2.9l3.5-2.9c.5-4.8 8.2-9.9 9.1-11.6.9-1.8.6-3.1.6-3.1.2-1 .5-3.1.5-3.1z"/>
  <path class="st4" d="M130.5 27s4.6-3.5 2.7-8l-.3 3-.8 2.1-1.8 2 .2.9z"/>
  <path d="M133.3 21.2s.9-1.3 3-.8l-.6-1.1s-2.1-.1-2.5.9l.1 1z" fill="#af2900"/>
  <path class="st4" d="M153.7 15.4c0-.2.1-.3.1-.3-2.4 5.8-7.5 7.8-7.3 7.3.6-1.2-.2-2.6 1.7-5.7.1-.2-4.8 2.3-5.4 3.6-1 2.4-1.6 4-3.8 5.3-2.8 1.7-6.3 2.2-9.4 2.5-.8.8-1.4 1.1-2.3.9.2.3.5.6.6.6l.3.2h.1c.1 0 .2.1.2.1s.1 0 .1.1l.3.1h.1l.4.2c.2.1.4.1.7.1 1 .1 2 .1 3-.1l-.1.1h.1l.8-.2h.1c.1 0 .1 0 .2-.1h1.1c.1 0 .1 0 .2.1.1 0 .2 0 .2.1h.1c.1 0 .1 0 .2.1h.1c.1 0 .1 0 .2.1h.1l.3.1.3.1h.1c.1 0 .1 0 .2.1h.1c.1 0 .1 0 .2.1h.1l.3.1c.1 0 .2.1.2.1h.1l.2.1h.1l.1.1h.1c.2.1.3.2.4.3 0 0 0 .1.1.1v.4l-.1.2v.1s0 .1-.1.1v.5c0 .1-.1.2-.1.2v.9s0 .1.1.1l.1.2.2.2s.1.1.2.1h.1s.1 0 .2.1h.7c.8 0 1.6-.6 2.1-1.2l.1-.1.1-.1c.4-.5.6-.9.8-1.2V32c0-.1 0-.3.1-.4v-.2c.1-.4.3-.9.5-1.3l.1-.3.3-.6c0-.1.1-.2.1-.2l.5-.8.1-.1.1-.2c0-.1.1-.1.2-.2s.1-.2.2-.2l.3-.4.2-.2.2-.2.4-.5.1-.1c.1-.1.2-.2.3-.4l.6-.6.2-.2.2-.2.2-.2.2-.2.2-.2.2-.2.2-.2c.1-.1.2-.1.2-.2l.1-.1.1-.1.3-.3.2-.2.2-.2.1-.1.2-.1c.1-.1.1-.1.2-.1l.1-.1c.1 0 .1-.1.1-.1l.1-.1.1-.1.1-.1.1-.1.1-.1.1-.1.1-.1.1-.1s0-.1.1-.1c0 0 0-.1.1-.1V21l.1-.1.2-.3v-.1l.1-.2v-.1c0-.1 0-.1.1-.2v-.1c0-.1 0-.1.1-.2V18c.2-.2.3-.5.4-.8.1-.1.1-.3.1-.4 0-.1 0-.2.1-.2 0-.2.1-.3.1-.4.2-.4.2-.6.2-.8z"/>
  <path class="st2" d="M126.6 28.7c2 3.1 6.6 2.1 9.4 1 4.8-1.9 8.2-5.7 8.7-11 0-.3-.7-.2-.8.1-.4 4.5-2.9 8-6.9 10-2.8 1.4-7.7 2.9-9.7-.3-.2-.3-.9-.1-.7.2z"/>
  <path d="M131 25.3" fill="none" stroke="#231f20" stroke-width=".2465" stroke-miterlimit="10"/>
  <path class="st4" d="M139.1 20.8c.6-.2 1.2-.3 1.8-.7l.1-.1c.1-.1.2-.2.3-.2.4-.5.5-1.1.3-1.8-.2-.8-.7-1.6-1.3-2.3-.3-.3-.8-.7-1.2-.6-.6.2-1 .8-1.2 1.4-.4 1.2-.4 2.5-.3 3.7.2.6.7.9 1.5.6-.1.1-.1 0 0 0z"/>
  <path class="st2" d="M142.1 19.2c.1-.2.1-.4.1-.6.1-1-.6-2-1.1-2.8-.5-.6-1.1-1.3-1.9-1.2-.7 0-1.3.8-1.6 1.4-.7 1.5-.4 3.2-.1 4.8h.1c-.1-1.4-.1-2.9.3-4.2.2-.6.6-1.2 1.2-1.4.4-.1.9.3 1.2.6.6.6 1 1.4 1.3 2.3.2.7.1 1.3-.3 1.8-.1.1-.2.2-.3.2l-.1.1c-.5.4-1.2.4-1.8.7v.1c.4.1.8 0 1.3-.1-.1-.1 1.5-.7 1.7-1.7zm-.9-.4c.1.9-.3 1.7-1 1.8-.7.1-1.4-.5-1.5-1.4-.1-.9.3-1.7 1-1.8.6-.1 1.3.5 1.5 1.4z"/>
  <path class="st4" d="M140.5 18.9l-.1-.3c-.1-.2-.3-.3-.5-.3-.3 0-.4.3-.5.6v.2c0 .2.2.4.3.5.1.1.2.1.3.1.2 0 .3-.2.4-.4.1-.2.1-.3.1-.4z"/>
  <path class="st2" d="M131 25.6l-.2-.3s.8-.6 1.5-1.8c.6-1.1 1.1-3 .3-5.6l.3-.1c1.6 5.2-1.9 7.7-1.9 7.8zm-2.6.1c.6-.2 2-.8 2.4-.7.4.2.5 1.1-1 2.8-1.3 1.4-2 1.8-4 .6-2.2-1.3 1.7-2.4 2.6-2.7z"/>
  <path class="st7" d="M120.7 12.3c2.7 1.1 5.1 3.9 5.1 3.9s.8-1.5 1.9-2.3c1.1-.7 1.2-1.1 1.2-1.1l-3.3-.7c-.6-.1-1.3-.2-2-.3-2.3-.1-7.9-.5-9.2-1 1 .7 3.6.5 6.3 1.5z"/>
  <path class="st8" d="M131.7 10.6l.4 1.5 1.4.8c-2-4.8 0-6.1 0-6.1-2.7 1.2-1.8 3.8-1.8 3.8z"/>
  <path class="st3" d="M132.4 14.1s-.6-1.2-1.7-1.7c0 0 2.4 0 3.2 2.8.8 2.7-1.3.1-1.3.1l-.2-1.2z"/>
  <path class="st2" d="M133.1 20.9s.9-1.3 3-.8l-.6-1.1s-2.1-.1-2.5.9l.1 1zm11.1-7c-.3-.8-.6-1.2-1-1.4-.2-.1-.5-.1-.9-.1-1 .1-2.5.4-3.8.9-1.6.7-4 2-4.2 2.8-.2.7.8 2.7 1.1 3.5.4.9 1.2 2.4 1.8 2.9.1.1.2.1.2.2.1 0 .3.1.8.1.7 0 1.8-.2 2.9-.6l.3-.1c1.3-.5 2.5-1.4 2.8-1.9.6-1 .7-4.4 0-6.3zm-5.9 8h-.5c-.2-.2-.7-1-1.3-2.6-.6-1.6-.8-2.6-.8-2.8.1-.3 1.4-1.3 3.2-2 1.2-.5 2.5-.8 3.4-.9h.5s.3.1.6 1c.6 1.6.7 4.4.5 5-.2.3-1.2 1.1-2.5 1.6-.1 0-.1 0-.2.1-1.2.4-2.3.6-2.9.6zm-5.7-4.4s-.2-.5-1-.4c-.8.1-1.6 2.7-1.3 4.9.3 2.2 1.9 1.3 2.5.8l.3-2.9-.5-2.4z"/>
  <path class="st4" d="M131.5 23.3c.1 0 .2-.1.4-.1 1.2-.1 1-1 1-2.8 0-1.6-.4-2.9-.9-3.1-.3-.1-.7 0-.9.3-.3.4-.5 1-.6 2.1-.1 1.9.3 3.5 1 3.6z"/>
  <path class="st2" d="M133 21.5c-.1-.8-.6-1.4-1.1-1.3-.5.1-.8.8-.7 1.6.1.8.6 1.4 1.1 1.3.5-.1.9-.8.7-1.6zm-.7.8c-.2 0-.4-.2-.5-.5 0-.3.1-.7.3-.7.2 0 .4.2.5.5 0 .4-.1.7-.3.7zm.9-3.4c-.1-.9-.2-2.1-.5-2.6-.3-.1-2.8-1.1-5.2 2 0 .3 0 .6.1 1 .3 1.7 1.3 4.2 1.8 4.6.2.1.5.2.8.2 1-.1 2.3-1 2.5-1.4-.3.2-1.2.5-1.6.6-.7.2-1.4.1-1.6 0l-.1-.1c-.4-.6-1-2.4-1.2-3.8-.1-.8-.1-1 0-1 0 0 0-.1.2-.2.4-.4 1.1-.8 1.8-1 1-.3 1.9-.2 2-.1.1.2.3 1 .5 2.5.1.7 0 2.7 0 3.1.3-.4.6-3.2.5-3.8z"/>
  <path class="st9" d="M143.1 27l-2.6 1.8L138 30l-1-.5s-.6 1 .3 1.3c0 0 3-.2 4.9-1.8.9-.7.9-2 .9-2z"/>
  <path class="st2" d="M136.1 29.5c.9.5 1.2.8 2.2.4 1.4-.5 2.7-1.2 3.9-2 2-1.3 3.5-4.2 2-6.5-.1-.2-.8.1-.8.2 1 1.5.6 3.8-.5 5.1-.7.9-1.9 1.5-3 2.1-.5.2-1.1.7-1.7.8-.6.1-1-.1-1.5-.4-.1 0-.7.3-.6.3zm.4.4c-.3 1.2.9 1.4 1.8 1.3 1.2-.2 2.4-.8 3.4-1.4.4-.3-.2-.5-.5-.3-.7.4-4.5 2.3-4 .4.2-.4-.6-.3-.7 0zm7.6-6.8s-.8 2.4-2.8 3.9c0 0 1.7-.6 3-3l-.2-.9z"/>
  <path class="st7" d="M143.4 10.8C141.6-.4 137.3.1 137.3.1c1.6.4 3.3 2.5 2.7 6.3-.2 1.3 0 2.7.2 3.5.7-.2 2.3-.3 3.2.9z"/>
  <path class="st2" d="M140.4 21.6s1.5-2.8 3.9-3.4"/>
  <path class="st8" d="M133.6 15.3c-2.7-3.3-5.9-.8-7.5-1.1-1.7-.3-1.2-2.1-1.2-2.1.8 1.2 1.4.7 4-.8.1 0 .2-.1.2-.1 2.3-1.1 5 .9 4.5 3.5v.6z"/>
  <path class="st7" d="M137.3.1s1.6-.2 3.4 2.4c0 0 .1-.4.2-.9 0-.5.7 1.6 1.4 2.8l.6 3.5s.2-3.2.3-4c.1-.8 1.1 5.2.3 6.9l-1.7-2.6-2.7-7.5-1.8-.6zm-12.4 12c.6.9 1.1.8 2.5.1-2.3-.8-6.3-1.4-6.3-1.4l1.8 1c-2.3-1-5.3-.9-5.3-.9l1.1.3c-1-.3-4.1-.3-4.1-.3l.7.3 1.5.2 2.6.2 2.4.4 2.2 1.3.8-.7c0-.3.1-.5.1-.5z"/>
  <path class="st3" d="M148.6 14.9s2 1 3.2-.2c0 0-.2 1.3-3.5 2-2.9.6.3-1.8.3-1.8z"/>
  <path class="st4" d="M145.9 20.5s3.3-.8 4.8-3.6c0 0-.2 1.2-2.2 5.5-1.9 4.3-2.9 3.3-2.9 3.3l.3-5.2z"/>
  <path class="st9" d="M143.3 32c.1-.4.3-.9.5-1.3l.1-.3.3-.6c0-.1.1-.2.1-.2l.5-.8.1-.1.1-.2c0-.1.1-.1.2-.2s.1-.2.2-.2l.3-.4.2-.2.2-.2.4-.5.1-.1c.1-.1.2-.2.3-.4l.6-.6.2-.2.2-.2.2-.2.2-.2.2-.2.2-.2.2-.2c.1-.1.2-.1.2-.2l.1-.1.1-.1.3-.3.2-.2.2-.2.1-.1.2-.1c.1-.1.1-.1.2-.1l.1-.1c.1 0 .1-.1.1-.1l.1-.1.1-.1.1-.1.1-.1.1-.1.1-.1.1-.1.1-.1s0-.1.1-.1c0 0 0-.1.1-.1v-.1l.1-.1.2-.3v-.1l.1-.2v-.1c0-.1 0-.1.1-.2v-.1c0-.1 0-.1.1-.2v-1.7c-.4 4.2-6.2 6.4-8.2 9.1-1.9 2.8-1.5 5.5-1.5 5.5 0-.1 0-.3.1-.4.6-.7.6-.8.6-.8z"/>
  <path class="st2" d="M136.4 42.7c-.2.1-.4.3-.6.5l-.2.4s0 .1-.1.1v.1c-.1.2-.2.4-.3.5-.2.5-.7 1.5-.4 2-.1.2-.1.5-.1.7 0 .4.4.9.8.9.1 0 .3 0 .4-.1.2 0 .5-.1.7-.3.5.3 1.3.1 1.7-.1l2.2-1.8s1.8-2.9.3-3.5c-1.4-.6-4.4.6-4.4.6zm3.5 2.9c-.4.5-1.1 1.4-1.7 1.6-.3.1-.7.2-1 .1h-.1l.1-.2c.5-.7 1.1-1.5 1.8-2V45c-.7.4-1.3.8-1.8 1.3-.3.3-.5.6-.7.8-.2.2-.4.3-.5.5-.1 0-.2 0-.3-.1-.5-.3-.2-.9-.1-1.4.3-.6.6-1.2 1.1-1.6.5-.5 1-.6 1.7-.8-.9 0-1.7.3-2.4.9l-.3.4.2-.6c.1-.3.2-.6.4-.9l.6-.4s2.3-1 3.7-.8c1.2.3-.7 3.3-.7 3.3z"/>
  <path class="st3" d="M139.9 45.6c-.4.5-1.1 1.4-1.7 1.6-.3.1-.7.2-1 .1h-.1l.1-.2c.5-.7 1.1-1.5 1.8-2V45c-.7.4-1.3.8-1.8 1.3-.3.3-.5.6-.7.8-.2.2-.4.3-.5.5-.1 0-.2 0-.3-.1-.5-.3-.2-.9-.1-1.4.3-.6.6-1.2 1.1-1.6.5-.5 1-.6 1.7-.8-.9 0-1.7.3-2.4.9l-.3.4.2-.6c.1-.3.2-.6.4-.9l.6-.4s2.3-1 3.7-.8c1.2.3-.7 3.3-.7 3.3zM16.8 35c0-2.6.9-4.8 2.8-6.7 1.9-1.8 4.1-2.7 6.8-2.7s5 .9 6.9 2.8c1.9 1.8 2.8 4.1 2.8 6.8s-.9 5-2.8 6.8c-1.9 1.8-4.2 2.7-6.9 2.7s-5-.9-6.8-2.8c-1.9-1.9-2.8-4.2-2.8-6.9zm4.2 0c0 1.8.5 3.2 1.4 4.3 1 1.1 2.3 1.6 3.9 1.6s2.9-.5 3.9-1.6 1.5-2.5 1.5-4.2c0-1.8-.5-3.2-1.5-4.2-1-1.1-2.3-1.6-3.9-1.6s-2.9.5-3.9 1.6C21.5 32 21 33.3 21 35zm17.3 0c0-2.6.9-4.8 2.8-6.7 1.9-1.8 4.1-2.7 6.8-2.7s5 .9 6.9 2.8c1.9 1.8 2.8 4.1 2.8 6.8s-.9 5-2.8 6.8c-1.9 1.8-4.2 2.7-6.9 2.7s-5-.9-6.8-2.8c-1.9-1.9-2.8-4.2-2.8-6.9zm4.3 0c0 1.8.5 3.2 1.4 4.3 1 1.1 2.3 1.6 3.9 1.6s2.9-.5 3.9-1.6 1.5-2.5 1.5-4.2c0-1.8-.5-3.2-1.5-4.2-1-1.1-2.3-1.6-3.9-1.6s-2.9.5-3.9 1.6c-.9 1.1-1.4 2.4-1.4 4.1zm18.1-9.5h4.2v2.2c.8-.8 1.5-1.4 2.1-1.7.6-.3 1.4-.5 2.3-.5 2 0 3.7.9 4.8 2.7 1.3-1.8 3.1-2.7 5.3-2.7 4.1 0 6.1 2.5 6.1 7.4v11.7h-4.2V34.1c0-1.7-.2-3-.6-3.7-.4-.7-1.1-1.1-2.1-1.1-1.2 0-2 .4-2.5 1.3s-.8 2.3-.8 4.2v9.9H71V34.1c0-3.2-.9-4.8-2.8-4.8-1.2 0-2 .4-2.6 1.3-.5.9-.8 2.3-.8 4.2v9.9h-4.2V25.5zm34.2-10.1v29.2h-4.2V15.4h4.2zm17.3 10.1h4.2v19.1h-4.2v-2.4c-1.7 1.6-3.6 2.4-5.6 2.4-2.5 0-4.6-.9-6.2-2.7-1.6-1.8-2.4-4.1-2.4-6.9 0-2.7.8-5 2.4-6.8s3.7-2.7 6.1-2.7c2.1 0 4 .9 5.7 2.6v-2.6zm-9.9 9.5c0 1.7.5 3.1 1.4 4.2 1 1.1 2.2 1.7 3.6 1.7 1.5 0 2.8-.5 3.7-1.6 1-1.1 1.4-2.5 1.4-4.2 0-1.7-.5-3.1-1.4-4.2-1-1.1-2.2-1.6-3.7-1.6-1.4 0-2.6.5-3.6 1.6-.9 1.2-1.4 2.5-1.4 4.1zM0 16.8v4.3h8.5V34c0 2.4-.3 4.1-.8 5.1S6.3 40.6 5 40.6c-.9 0-1.9-.4-3-1.1l-2 3.7c1.6.9 3.3 1.4 5.1 1.4 2.4 0 4.3-.8 5.8-2.5.7-.9 1.3-1.9 1.6-3.1.3-1.1.5-2.7.5-5V16.8H0z"/>
  <path d="M20.2 18.4h8v1.3h-9.3V3.4h1.3v15zm11.7-5.3c-.1 3.2 2.2 5.4 5.1 5.4 2 0 3.6-1.2 4.5-2.9l1.1.6c-1.2 2.2-3.2 3.5-5.7 3.5-3.8 0-6.2-3.1-6.2-6.7s2.5-6.7 6.2-6.7c3.9 0 6.2 3.1 6.2 6.8H31.9zm9.9-1.2c-.3-2.4-2.2-4.5-4.9-4.5-2.6 0-4.8 2.1-5 4.5h9.9zm17.9 7.8h-1.3v-2.6h-.1c-.9 1.6-3 2.6-4.9 2.6-3.9 0-6.3-3-6.3-6.8s2.4-6.6 6.3-6.6c2 0 3.9.9 4.9 2.5h.1V6.3h1.3v13.4zm-11.2-6.8c0 2.9 1.9 5.6 5.1 5.6 3.3 0 5.1-2.7 5.1-5.7s-2-5.3-5.1-5.3c-3.1-.1-5.1 2.6-5.1 5.4zm18.1-4.4c.6-1.2 1.5-1.9 2.8-1.9.5 0 .9.1 1.4.3L70.1 8c-.3-.2-.6-.2-.9-.2-2.8 0-2.6 3.5-2.6 5.4v6.6h-1.2V6.3h1.2v2.2zm10 .3c.8-1.4 2.2-2.3 3.9-2.3 3.3 0 4.2 2.1 4.2 5.4v7.7h-1.2v-7.7c0-2.3-.3-4.2-3.1-4.2-3.2 0-3.7 3-3.7 5.6v6.3h-1.3V6.3h1.3v2.5z" fill="#363a4c"/>
</svg>
