<svg version="1.1" role="none" width="50px" height="50px" xmlns="http://www.w3.org/2000/svg" xmlns:xlink="http://www.w3.org/1999/xlink" x="0px" y="0px"
	 viewBox="0 0 41.8 49.6" style="enable-background:new 0 0 41.8 49.6;" xml:space="preserve">
<g>
	<path fill="#fff" class="st0" d="M40.8,22.2v2.6V33c0,8.7-7,15.7-15.7,15.7l0,0c-4.1,0-8.1-1.7-11-4.6l-1.4-1.4L2,31.9
		c-1.4-1.4-1.4-3.8,0.2-5.2c1.4-1.2,3.5-1,4.9,0.3l5.8,5.8v-3.1v-4.9V4.5c0-2.1,1.8-3.7,3.8-3.5c1.8,0.2,3.2,1.8,3.2,3.7v11H20
		c0.3-1.7,1.8-2.9,3.7-2.8c1.9,0.1,3.3,1.8,3.3,3.7v2H27c0.3-1.7,1.8-2.9,3.7-2.8c1.9,0.1,3.3,1.8,3.3,3.7v2H34
		c0.3-1.7,1.8-2.9,3.7-2.8C39.5,18.6,40.8,20.3,40.8,22.2z"/>
	<path d="M25.2,49.6c-4.4,0-8.6-1.7-11.7-4.9L1.3,32.6C0.4,31.7,0,30.5,0,29.3C0,28,0.6,26.8,1.6,26c1.8-1.5,4.4-1.3,6.1,0.3
		l4.2,4.2V4.5c0-1.3,0.5-2.4,1.4-3.3c0.9-0.8,2.2-1.3,3.4-1.2c2.3,0.2,4.1,2.2,4.1,4.6v8.1c0.8-0.6,1.8-0.9,2.9-0.8
		c2,0.1,3.7,1.6,4.1,3.7c0.8-0.6,1.9-0.9,3-0.8c2,0.1,3.7,1.6,4.1,3.7c0.8-0.6,1.9-0.9,3-0.8c0,0,0,0,0,0c2.2,0,4.1,2,4.1,4.5V33
		C41.8,42.2,34.3,49.6,25.2,49.6z M4.4,26.9c-0.6,0-1.1,0.2-1.6,0.6c-0.5,0.5-0.9,1.1-0.9,1.9c0,0.7,0.2,1.4,0.7,1.9l12.2,12.2
		c2.8,2.8,6.5,4.3,10.4,4.3c8.1,0,14.7-6.6,14.7-14.7V22.2c0-1.5-1-2.6-2.2-2.6c-1.4-0.1-2.5,0.8-2.7,2l-0.1,0.8H33l-0.1-1v-2
		c0-1.5-1-2.7-2.4-2.7c-1.3-0.1-2.5,0.8-2.7,2l-0.1,0.8H26l-0.1-1v-2c0-1.5-1-2.7-2.4-2.7c-1.3-0.1-2.5,0.8-2.7,2l-0.1,0.8H19
		l-0.1-1v-11c0-1.4-1-2.6-2.3-2.7c-0.7-0.1-1.4,0.2-2,0.7c-0.5,0.5-0.8,1.2-0.8,1.9v30.7l-7.4-7.4C5.8,27.2,5.1,26.9,4.4,26.9z"/>
</g>
</svg>
