<svg xmlns="http://www.w3.org/2000/svg" width="136" height="26" viewBox="0 0 136 26">
  <g fill="none" fill-rule="evenodd">
    <g fill-rule="nonzero">
      <g>
        <g>
          <g id="joomla-logo">
            <path d="M4.754955 13.046847l-.491892-.491892C2.717117 11.009009 2.24865 8.807207 2.834234 6.863063 1.288288 6.511712.140541 5.12973.140541 3.49009c0-1.897297 1.545945-3.443243 3.443243-3.443243 1.70991 0 3.138739 1.241441 3.396396 2.88108 1.873874-.445044 3.911712.070271 5.363964 1.522523l.187387.187388L9.978378 7.19099l-.187387-.187387c-.81982-.81982-2.178378-.81982-2.998198 0s-.81982 2.178378 0 2.998198l.491892.491892 2.553153 2.553153 2.693694 2.693694-2.553154 2.553153L7.284685 15.6l-2.52973-2.553153z" fill="#28466a" class="j-green"/>
            <path d="M7.612613 10.212613l2.693693-2.693694 2.553154-2.553153.491891-.491892c1.522523-1.522523 3.724325-2.014415 5.668469-1.452252.234234-1.686487 1.663063-2.974775 3.41982-2.974775 1.897297 0 3.443243 1.545946 3.443243 3.443243 0 1.756757-1.311712 3.20901-2.998198 3.41982.562162 1.944144.07027 4.099099-1.452253 5.621621l-.187387.187388-2.553153-2.553153.187387-.187388c.81982-.81982.81982-2.178378 0-2.998198s-2.154955-.81982-2.998198 0l-.491892.491892-2.553153 2.6-2.693694 2.693694-2.52973-2.553153z" fill="#28466a" class="j-orange"/>
            <path d="M19.066667 23.048649c-1.967568.609009-4.16937.117117-5.73874-1.42883l-.187387-.187387 2.553154-2.553153.187387.187388c.81982.81982 2.178378.81982 2.998198 0s.81982-2.154955 0-2.998198l-.491892-.491892-2.553153-2.553154-2.693694-2.693693 2.553154-2.506307 2.693693 2.693694 2.553154 2.553153.491891.491892c1.475676 1.475676 1.967568 3.513514 1.522523 5.387387 1.686486.234235 2.974775 1.686487 2.974775 3.41982 0 1.897298-1.545946 3.443244-3.443243 3.443244-1.70991 0-3.091892-1.171172-3.41982-2.763964z" fill="#28466a" class="j-red"/>
            <path d="M18.082883 15.904504l-2.693694 2.693694-2.553153 2.553153-.491892.491892c-1.475675 1.475676-3.536937 1.967568-5.434234 1.4991-.351351 1.522522-1.733333 2.67027-3.372973 2.67027-1.897297 0-3.443243-1.545946-3.443243-3.443244 0-1.63964 1.124324-2.998198 2.646847-3.34955-.491892-1.897296.023423-3.981981 1.499099-5.457657l.187387-.187387 2.553153 2.553153-.187387.187387c-.81982.81982-.81982 2.154955 0 2.998199.81982.81982 2.178378.81982 2.998198 0l.491892-.491892 2.553153-2.553153 2.693694-2.693694 2.553153 2.52973z" fill="#28466a" class="j-blue"/>
          </g>
        </g>
        <g id="joomla-logo-text">
          <path d="M41.62772 4v11.87024c0 1.061875.076746 2.047902-.882583 2.76846-.882583.720557-2.379136.948102-3.990808.948102-2.455882 0-5.065257-.568861-5.065257-.568861l-.575597 1.516963s3.64545.758482 6.293197.796406c2.225643.037924 4.182674-.455089 5.257123-1.66866.882582-.986026 1.151194-2.123749 1.112821-4.057878V4h-2.148897" fill="#28466a"/>
          <path d="M60.003324 10.637681c-1.63283-.857143-3.61555-1.304348-5.87041-1.304348-2.215983 0-4.198705.447205-5.87041 1.304348-2.099353 1.080745-3.149029 2.68323-3.149029 4.695652 0 2.012423 1.049676 3.614907 3.149028 4.695653 1.671706.857142 3.615551 1.304347 5.87041 1.304347 2.215983 0 4.198705-.447205 5.831534-1.304347 2.099352-1.080746 3.149028-2.68323 3.149028-4.695653 0-2.04969-1.049676-3.614907-3.110151-4.695652m-1.282937 8.198758c-1.282938.708075-2.799136 1.043478-4.587473 1.043478-1.827214 0-3.38229-.335403-4.62635-1.006211-1.516199-.819876-2.25486-1.975155-2.25486-3.540373 0-1.52795.777538-2.720497 2.25486-3.540372 1.24406-.670808 2.799136-1.006212 4.62635-1.006212 1.788337 0 3.343412.335404 4.62635 1.006212 1.477321.819875 2.25486 2.012422 2.25486 3.540372-.038878 1.490684-.777539 2.68323-2.293737 3.503106zM78.66999 10.63768c-1.63283-.857143-3.615551-1.304348-5.87041-1.304348-2.215983 0-4.198705.447205-5.870411 1.304348-2.099352 1.080745-3.149028 2.68323-3.149028 4.695652 0 2.012423 1.049676 3.614907 3.149028 4.695652 1.671706.857143 3.61555 1.304348 5.87041 1.304348 2.215983 0 4.198704-.447205 5.831534-1.304348 2.099352-1.080745 3.149028-2.68323 3.149028-4.695652 0-2.04969-1.049676-3.614907-3.110151-4.695652m-1.282938 8.198758c-1.282937.708075-2.799136 1.043478-4.587473 1.043478-1.827214 0-3.38229-.335403-4.62635-1.006211-1.516198-.819876-2.25486-1.975155-2.25486-3.540373 0-1.52795.777539-2.720497 2.25486-3.540372 1.24406-.670808 2.799136-1.006212 4.62635-1.006212 1.788337 0 3.343413.335404 4.62635 1.006212 1.477322.819875 2.25486 2.012422 2.25486 3.540372-.038877 1.490684-.777538 2.68323-2.293737 3.503106z" fill="#28466a"/>
          <path d="M104.223166 10.355415c-1.15016-.681388-2.645367-1.022082-4.408945-1.022082-2.261981 0-4.063898.681388-5.44409 2.044164-1.303514-1.362776-3.14377-2.044164-5.40575-2.044164-1.840256 0-3.335464.37855-4.485624 1.097792v-.946372H82.44681v11.77287h2.031948v-8.025236c.153355-.567823.536742-1.097792 1.15016-1.55205.84345-.567824 1.916933-.870663 3.258786-.870663 1.188499 0 2.185304.22713 3.028754.719243.996805.567823 1.45687 1.324921 1.45687 2.384858v7.419558h1.99361V13.87592c0-1.059937.460063-1.817035 1.456868-2.384858.84345-.454259 1.878595-.719243 3.067093-.719243 1.188498 0 2.223642.22713 3.067093.719243.996805.567823 1.456869 1.324921 1.456869 2.384858v7.419558h2.031948v-7.154574c-.038338-1.665615-.805111-2.952681-2.223642-3.785489M108.447 4v17.333h2V4h-2M133.113 4v13.333h2V4h-2" fill="#28466a"/>
          <path d="M127.754168 9.52025v1.981308c-1.753247-1.420561-4.09091-2.168225-6.974026-2.168225-2.298701 0-4.285714.411215-5.922078 1.271028-2.025974 1.084113-3.077922 2.654206-3.077922 4.747664 0 2.056075 1.051948 3.663551 3.155844 4.71028 1.636364.859813 3.623377 1.271028 5.922078 1.271028 1.12987 0 2.25974-.11215 3.272727-.373831 1.441559-.373832 2.64935-.897197 3.584416-1.607477v1.794392h2.064935V9.52025h-2.025974m-13.792208 5.86916c0-1.532711.77922-2.728973 2.25974-3.551403 1.246753-.672897 2.844156-1.009346 4.675325-1.009346 2.25974 0 4.012987.523365 5.25974 1.570094 1.09091.93458 1.636364 2.130841 1.636364 3.588785v1.383178c-.857143.934579-2.142857 1.64486-3.77922 2.13084-.974027.299066-2.025975.448599-3.116884.448599-1.87013 0-3.428572-.336449-4.675325-.971963-1.51948-.859813-2.25974-2.018691-2.25974-3.588785z" fill="#28466a"/>
          <path d="M134.113475 19.333333c-1.468254 0-1.666666.817205-1.666666 1.333334 0 .516129.238095 1.333333 1.666666 1.333333 1.468254 0 1.666667-.860215 1.666667-1.333333 0-.473119-.238095-1.333334-1.666667-1.333334z" fill="#28466a"/>
        </g>
      </g>
    </g>
  </g>
</svg>